<?xml version="1.0" encoding="utf-8"?>
<!-- Generator: Adobe Illustrator 23.0.1, SVG Export Plug-In . SVG Version: 6.00 Build 0)  -->
<svg version="1.1" xmlns="http://www.w3.org/2000/svg" xmlns:xlink="http://www.w3.org/1999/xlink" x="0px" y="0px"
	 viewBox="0 0 750 750" style="enable-background:new 0 0 750 750;" xml:space="preserve">
<style type="text/css">
	.st0{fill:#FFFFFF;}
	.st1{fill:none;stroke:#3A54F5;stroke-width:1.9;stroke-linecap:round;stroke-linejoin:round;stroke-miterlimit:10;}
	.st2{fill:#3A54F5;}
	.st3{fill:none;stroke:#3A54F5;stroke-width:2;stroke-linecap:round;stroke-linejoin:round;stroke-miterlimit:10;}
	.st4{fill:none;stroke:#3A54F5;stroke-width:3;stroke-linecap:round;stroke-linejoin:round;}
	.st5{fill:none;stroke:#3A54F5;stroke-width:3;stroke-linecap:round;stroke-linejoin:round;stroke-dasharray:4.9058,6.8682;}
	.st6{fill:none;stroke:#3A54F5;stroke-width:3;stroke-linecap:round;stroke-linejoin:round;stroke-dasharray:4.8884,6.8438;}
	.st7{fill:none;stroke:#3A54F5;stroke-width:2.5;stroke-linecap:round;stroke-linejoin:round;stroke-miterlimit:10;}
	.st8{fill:none;stroke:#3A54F5;stroke-width:5;stroke-linecap:round;stroke-linejoin:round;}
	.st9{fill:none;stroke:#3A54F5;stroke-width:5;stroke-linecap:round;stroke-linejoin:round;stroke-dasharray:8.0076,11.0105;}
	.st10{fill:none;stroke:#3A54F5;stroke-width:2.85;stroke-linecap:round;stroke-linejoin:round;}
	.st11{fill:none;stroke:#3A54F5;stroke-width:2.85;stroke-linecap:round;stroke-linejoin:round;stroke-dasharray:4.6381,6.4933;}
	.st12{fill:none;stroke:#3A54F5;stroke-width:2.85;stroke-linecap:round;stroke-linejoin:round;stroke-dasharray:4.7196,6.6074;}
	.st13{fill:none;stroke:#3A54F5;stroke-width:2.85;stroke-linecap:round;stroke-linejoin:round;stroke-dasharray:4.8098,6.7337;}
	.st14{fill:none;stroke:#3A54F5;stroke-width:3;stroke-linecap:round;stroke-linejoin:round;stroke-dasharray:4.9351,6.9092;}
	.st15{fill:none;stroke:#3A54F5;stroke-width:3;stroke-linecap:round;stroke-linejoin:round;stroke-dasharray:5.0902,7.1263;}
	.st16{fill:none;stroke:#3A54F5;stroke-width:3;stroke-linecap:round;stroke-linejoin:round;stroke-dasharray:5.1293,7.181;}
	.st17{fill:none;stroke:#000000;stroke-width:3;stroke-linecap:round;stroke-linejoin:round;}
	.st18{fill:none;stroke:#000000;stroke-width:3;stroke-linecap:round;stroke-linejoin:round;stroke-dasharray:4.9351,6.9092;}
	.st19{fill:none;stroke:#000000;stroke-width:3;stroke-linecap:round;stroke-linejoin:round;stroke-dasharray:5.0902,7.1263;}
	.st20{fill:none;stroke:#3A54F5;stroke-width:2.375;stroke-linecap:round;stroke-linejoin:round;stroke-miterlimit:10;}
	.st21{fill:none;stroke:#000000;stroke-width:2.5;stroke-linecap:round;stroke-linejoin:round;stroke-miterlimit:10;}
	.st22{fill:none;stroke:#3A54F5;stroke-width:3.325;stroke-linecap:round;stroke-linejoin:round;stroke-miterlimit:10;}
	.st23{fill:none;stroke:#3A54F5;stroke-width:3.5;stroke-linecap:round;stroke-linejoin:round;stroke-miterlimit:10;}
	.st24{fill:none;stroke:#000000;stroke-width:3.5;stroke-linecap:round;stroke-linejoin:round;stroke-miterlimit:10;}
</style>
<g id="FILL-BACKGROUND">
	<rect class="st0" width="750" height="750"/>
</g>
<g id="N-DIMENSIONS">
	<g>
		<g id="POLYLINE_194_">
			<line class="st3" x1="671.46" y1="638.11" x2="672.34" y2="425.89"/>
		</g>
		<g id="LINE_3_">
			<line class="st3" x1="672.54" y1="375.92" x2="673.36" y2="108.75"/>
		</g>
		<g id="POLYLINE_193_">
			<polyline class="st3" points="666.71,115.35 673.36,108.75 679.96,115.41    "/>
		</g>
		<g id="POLYLINE_192_">
			<polyline class="st3" points="678.11,631.51 671.46,638.11 664.86,631.45    "/>
		</g>
		<g id="MTEXT_13_">
			<g>
				<g>
					<g>
						<path class="st2" d="M671.51,397.52c-0.07-0.08-0.11-0.18-0.11-0.3l0.04-10.15l-3.03,2.31c-0.08,0.07-0.17,0.11-0.27,0.11        c-0.11,0-0.21-0.06-0.3-0.18l-0.43-0.56c-0.06-0.08-0.09-0.17-0.09-0.25c0-0.13,0.06-0.24,0.18-0.32l3.92-3.01        c0.13-0.08,0.29-0.12,0.47-0.12l0.85,0c0.12,0,0.22,0.04,0.3,0.12c0.08,0.08,0.12,0.18,0.12,0.3l-0.05,11.77        c0,0.12-0.04,0.22-0.12,0.3c-0.08,0.08-0.18,0.12-0.3,0.12l-0.88,0C671.68,397.64,671.58,397.6,671.51,397.52z"/>
						<path class="st2" d="M679.16,397.55c-0.07-0.08-0.11-0.18-0.11-0.3l0.04-10.15l-3.03,2.31c-0.08,0.07-0.17,0.11-0.27,0.11        c-0.11,0-0.21-0.06-0.3-0.18l-0.43-0.56c-0.06-0.08-0.09-0.17-0.09-0.25c0-0.13,0.06-0.24,0.18-0.32l3.92-3.01        c0.13-0.08,0.29-0.12,0.47-0.12l0.85,0c0.12,0,0.22,0.04,0.3,0.12c0.08,0.08,0.12,0.18,0.12,0.3l-0.05,11.77        c0,0.12-0.04,0.22-0.12,0.3s-0.18,0.12-0.3,0.12l-0.88,0C679.33,397.67,679.23,397.63,679.16,397.55z"/>
						<path class="st2" d="M683.27,388.23c-0.05-0.07-0.07-0.16-0.05-0.28l0.41-2.52c0.05-0.35,0.22-0.52,0.51-0.52l1.15,0        c0.08,0,0.15,0.03,0.21,0.09s0.08,0.13,0.08,0.22c0,0.12-0.02,0.22-0.05,0.29l-0.95,2.43c-0.06,0.13-0.13,0.23-0.2,0.3        c-0.07,0.07-0.18,0.1-0.32,0.1l-0.56,0C683.38,388.33,683.31,388.29,683.27,388.23z"/>
						<path class="st2" d="M695.32,397.62c-0.07-0.08-0.11-0.18-0.11-0.3l0.04-10.15l-3.03,2.31c-0.08,0.07-0.17,0.11-0.27,0.11        c-0.11,0-0.21-0.06-0.31-0.18l-0.43-0.56c-0.06-0.08-0.09-0.17-0.09-0.25c0-0.13,0.06-0.24,0.18-0.32l3.92-3.01        c0.13-0.08,0.29-0.12,0.47-0.12l0.85,0c0.12,0,0.22,0.04,0.3,0.12c0.08,0.08,0.12,0.18,0.12,0.3l-0.05,11.77        c0,0.12-0.04,0.22-0.12,0.3c-0.08,0.08-0.18,0.12-0.3,0.12l-0.88,0C695.49,397.73,695.39,397.7,695.32,397.62z"/>
						<path class="st2" d="M700.59,396.58c-0.71-0.91-1.09-2.1-1.13-3.56l-0.01-1.55l0.02-1.6c0.04-1.45,0.43-2.63,1.16-3.53        c0.73-0.9,1.86-1.35,3.4-1.35c1.55,0.01,2.68,0.46,3.41,1.37s1.1,2.09,1.13,3.54c0.01,0.34,0.01,0.87,0.01,1.6        c0,0.71-0.01,1.22-0.02,1.55c-0.05,1.46-0.44,2.65-1.16,3.55c-0.72,0.9-1.86,1.35-3.42,1.34        C702.43,397.94,701.3,397.49,700.59,396.58z M706.08,395.55c0.47-0.61,0.72-1.47,0.75-2.59c0.01-0.35,0.02-0.85,0.02-1.49        c0-0.66,0-1.15-0.01-1.47c-0.02-1.1-0.27-1.97-0.74-2.59c-0.47-0.62-1.16-0.93-2.08-0.94c-0.91,0-1.6,0.3-2.07,0.92        s-0.72,1.48-0.75,2.58l-0.03,1.47l0.01,1.49c0.02,1.12,0.26,1.98,0.73,2.6c0.46,0.61,1.15,0.92,2.07,0.93        C704.91,396.46,705.61,396.16,706.08,395.55z"/>
						<path class="st2" d="M710.81,388.33c-0.05-0.07-0.07-0.16-0.04-0.27l0.41-2.52c0.05-0.35,0.22-0.52,0.51-0.52l1.15,0        c0.08,0,0.15,0.03,0.21,0.09s0.08,0.13,0.08,0.22c0,0.12-0.02,0.22-0.05,0.29l-0.95,2.43c-0.06,0.13-0.13,0.23-0.2,0.3        c-0.07,0.07-0.18,0.1-0.32,0.1l-0.56,0C710.94,388.44,710.87,388.4,710.81,388.33z M713.64,388.34        c-0.05-0.07-0.07-0.16-0.04-0.27l0.41-2.52c0.05-0.35,0.22-0.52,0.51-0.52l1.15,0c0.08,0,0.15,0.03,0.21,0.09        c0.05,0.06,0.08,0.13,0.08,0.22c0,0.12-0.02,0.22-0.05,0.29l-0.95,2.43c-0.06,0.13-0.13,0.23-0.2,0.3        c-0.07,0.07-0.18,0.1-0.32,0.1l-0.56,0C713.77,388.45,713.69,388.41,713.64,388.34z"/>
						<path class="st2" d="M669.65,416.95c-0.68-0.31-1.2-0.71-1.55-1.2c-0.35-0.49-0.54-1-0.56-1.53c0-0.11,0.04-0.2,0.11-0.26        s0.16-0.1,0.27-0.1l0.81,0c0.13,0,0.24,0.03,0.32,0.08c0.08,0.05,0.15,0.16,0.2,0.32c0.15,0.61,0.49,1.05,1.01,1.3        c0.52,0.25,1.13,0.38,1.84,0.39c0.86,0,1.55-0.2,2.06-0.61s0.77-1,0.77-1.77c0.01-1.46-0.88-2.2-2.67-2.21l-1.69-0.01        c-0.12,0-0.22-0.04-0.3-0.12c-0.08-0.08-0.12-0.18-0.12-0.3l0-0.47c0-0.18,0.07-0.34,0.2-0.47l3.53-3.87l-5.33-0.02        c-0.12,0-0.22-0.04-0.3-0.11s-0.12-0.17-0.12-0.29l0-0.65c0-0.13,0.04-0.24,0.12-0.31s0.18-0.12,0.3-0.12l7.13,0.03        c0.13,0,0.24,0.04,0.31,0.12s0.12,0.18,0.12,0.32l0,0.59c0,0.13-0.06,0.27-0.18,0.41l-3.53,3.93l0.29,0        c1.22,0.04,2.19,0.36,2.9,0.97c0.71,0.6,1.06,1.48,1.06,2.63c0,0.79-0.2,1.47-0.59,2.04s-0.94,1-1.63,1.31        c-0.7,0.3-1.48,0.45-2.36,0.45C671.14,417.41,670.33,417.26,669.65,416.95z"/>
						<path class="st2" d="M678.85,417.15c-0.08-0.08-0.12-0.18-0.12-0.3l0-1.24c0-0.12,0.04-0.22,0.12-0.3        c0.08-0.08,0.18-0.12,0.3-0.12l1.24,0c0.12,0,0.22,0.04,0.3,0.13c0.08,0.08,0.12,0.19,0.12,0.31l-0.01,1.24        c0,0.12-0.04,0.22-0.12,0.3c-0.08,0.08-0.18,0.12-0.3,0.12l-1.24,0C679.03,417.27,678.93,417.23,678.85,417.15z"/>
						<path class="st2" d="M684.83,416.88c-0.7-0.39-1.23-0.92-1.59-1.58c-0.36-0.66-0.54-1.38-0.54-2.16        c0-1.03,0.42-2.13,1.26-3.31l3.46-4.77c0.01-0.01,0.04-0.05,0.1-0.12c0.05-0.07,0.12-0.13,0.21-0.17        c0.08-0.04,0.18-0.06,0.29-0.06l0.88,0c0.11,0,0.19,0.04,0.26,0.12c0.07,0.08,0.1,0.17,0.1,0.28c0,0.06-0.03,0.14-0.09,0.23        l-2.64,3.66c0.31-0.07,0.66-0.11,1.04-0.1c0.88,0,1.65,0.2,2.31,0.59s1.18,0.91,1.54,1.55c0.36,0.64,0.54,1.35,0.54,2.12        c0,0.77-0.19,1.48-0.56,2.15c-0.37,0.67-0.9,1.19-1.6,1.59c-0.7,0.39-1.52,0.59-2.47,0.58        C686.36,417.48,685.53,417.28,684.83,416.88z M688.77,415.67c0.44-0.21,0.8-0.53,1.07-0.96c0.27-0.42,0.4-0.94,0.4-1.54        c0-0.59-0.13-1.1-0.4-1.52c-0.27-0.43-0.62-0.75-1.07-0.98c-0.44-0.22-0.92-0.34-1.44-0.34c-0.52,0-1,0.11-1.44,0.33        c-0.44,0.22-0.8,0.54-1.07,0.97s-0.4,0.93-0.4,1.52c0,0.6,0.13,1.11,0.39,1.54s0.62,0.75,1.06,0.97        c0.44,0.22,0.92,0.33,1.44,0.33C687.84,415.99,688.32,415.88,688.77,415.67z"/>
						<path class="st2" d="M698.49,417.23c-0.08-0.08-0.12-0.18-0.12-0.3l0.04-8.53c0-0.12,0.04-0.22,0.12-0.3        c0.08-0.08,0.18-0.12,0.3-0.12l0.76,0c0.12,0,0.22,0.04,0.29,0.12c0.07,0.08,0.11,0.18,0.11,0.3l0,0.61        c0.65-0.8,1.53-1.2,2.63-1.2c1.32,0,2.25,0.56,2.8,1.67c0.29-0.5,0.7-0.9,1.24-1.2s1.13-0.45,1.79-0.44        c0.98,0,1.79,0.34,2.41,1.02s0.93,1.65,0.92,2.92l-0.02,5.2c0,0.12-0.04,0.22-0.12,0.3c-0.08,0.08-0.18,0.12-0.3,0.12l-0.77,0        c-0.12,0-0.22-0.04-0.3-0.12c-0.08-0.08-0.12-0.18-0.12-0.3l0.02-5.04c0-0.96-0.19-1.65-0.59-2.06        c-0.39-0.42-0.92-0.62-1.56-0.63c-0.58,0-1.07,0.21-1.49,0.63c-0.42,0.42-0.62,1.11-0.63,2.04l-0.02,5.04        c0,0.12-0.04,0.22-0.12,0.3c-0.08,0.08-0.18,0.12-0.3,0.12l-0.79,0c-0.12,0-0.22-0.04-0.3-0.12c-0.08-0.08-0.12-0.18-0.12-0.3        l0.02-5.04c0-0.95-0.2-1.63-0.61-2.05s-0.92-0.63-1.54-0.64c-0.58,0-1.07,0.21-1.49,0.62c-0.42,0.42-0.63,1.1-0.63,2.03        l-0.02,5.06c0,0.12-0.04,0.22-0.12,0.3c-0.08,0.08-0.18,0.12-0.3,0.12l-0.79,0C698.67,417.35,698.57,417.31,698.49,417.23z"/>
					</g>
				</g>
			</g>
		</g>
		<g id="MTEXT_12_">
			<g>
				<g>
					<g>
						<path class="st2" d="M363.71,452.75c-0.66-0.33-1.16-0.75-1.51-1.28c-0.35-0.52-0.53-1.08-0.55-1.68v-0.04        c0-0.1,0.04-0.17,0.11-0.23s0.16-0.09,0.25-0.09l0.88,0c0.25,0,0.41,0.13,0.49,0.4c0.18,0.65,0.51,1.13,0.99,1.45        c0.49,0.32,1.04,0.48,1.68,0.48c0.82,0,1.5-0.24,2.04-0.74c0.54-0.5,0.81-1.18,0.82-2.06c0-0.8-0.26-1.44-0.8-1.92        c-0.54-0.47-1.22-0.71-2.03-0.72c-0.43,0-0.78,0.05-1.04,0.16c-0.26,0.11-0.54,0.26-0.81,0.46c-0.16,0.12-0.29,0.21-0.39,0.26        c-0.1,0.05-0.21,0.08-0.33,0.08l-0.86,0c-0.11,0-0.2-0.04-0.29-0.12c-0.08-0.08-0.12-0.17-0.11-0.28l0.58-5.99        c0.04-0.3,0.19-0.45,0.45-0.45l6.23,0.03c0.13,0,0.23,0.04,0.31,0.11c0.07,0.07,0.11,0.17,0.11,0.31l0,0.67        c0,0.12-0.04,0.22-0.12,0.29c-0.08,0.07-0.18,0.11-0.3,0.11l-5.18-0.02l-0.34,3.62c0.58-0.41,1.35-0.61,2.33-0.6        c0.8,0,1.54,0.17,2.19,0.49c0.66,0.32,1.18,0.79,1.57,1.4c0.39,0.61,0.58,1.34,0.58,2.18c0,0.89-0.2,1.65-0.59,2.29        s-0.93,1.12-1.63,1.45c-0.69,0.33-1.48,0.49-2.37,0.49C365.15,453.24,364.37,453.08,363.71,452.75z"/>
						<path class="st2" d="M372.61,443.64c-0.05-0.07-0.07-0.16-0.05-0.28l0.41-2.52c0.05-0.35,0.22-0.52,0.51-0.52l1.15,0        c0.08,0,0.15,0.03,0.21,0.09c0.05,0.06,0.08,0.13,0.08,0.22c0,0.12-0.02,0.22-0.05,0.29l-0.95,2.43        c-0.06,0.13-0.13,0.23-0.2,0.3c-0.07,0.07-0.18,0.1-0.32,0.1l-0.56,0C372.72,443.74,372.65,443.7,372.61,443.64z"/>
						<path class="st2" d="M380.63,453.02c-0.07-0.07-0.11-0.16-0.11-0.27c0-0.11,0.04-0.22,0.13-0.34l3.15-4.06l-2.92-3.88        c-0.1-0.13-0.14-0.24-0.14-0.33c0-0.11,0.04-0.2,0.12-0.27c0.08-0.07,0.17-0.11,0.26-0.11l0.86,0c0.18,0,0.33,0.1,0.47,0.29        l2.42,3.16l2.44-3.14c0.07-0.1,0.14-0.17,0.21-0.21s0.15-0.07,0.26-0.07l0.83,0c0.1,0,0.18,0.04,0.25,0.11        c0.07,0.07,0.11,0.16,0.11,0.25c0,0.12-0.04,0.23-0.13,0.34l-2.99,3.89l3.12,4.04c0.08,0.12,0.12,0.23,0.12,0.34        c0,0.11-0.04,0.2-0.11,0.27c-0.07,0.07-0.16,0.11-0.27,0.11l-0.88,0c-0.18,0-0.34-0.09-0.47-0.27l-2.56-3.34l-2.59,3.32        c-0.07,0.08-0.14,0.15-0.21,0.2c-0.07,0.05-0.15,0.07-0.26,0.07l-0.85,0C380.79,453.13,380.7,453.09,380.63,453.02z"/>
						<path class="st2" d="M396.97,452.89c-0.66-0.33-1.16-0.75-1.51-1.28c-0.35-0.52-0.53-1.09-0.55-1.69v-0.04        c0-0.1,0.04-0.17,0.11-0.23c0.07-0.06,0.16-0.09,0.25-0.09l0.88,0c0.25,0,0.41,0.13,0.48,0.4c0.18,0.65,0.51,1.13,0.99,1.45        c0.48,0.32,1.04,0.48,1.68,0.48c0.82,0,1.5-0.24,2.04-0.74c0.54-0.5,0.82-1.18,0.82-2.06c0-0.8-0.26-1.44-0.8-1.92        c-0.54-0.48-1.21-0.71-2.03-0.72c-0.43,0-0.78,0.05-1.04,0.16c-0.26,0.11-0.54,0.26-0.81,0.46c-0.16,0.12-0.29,0.21-0.39,0.26        c-0.1,0.05-0.21,0.08-0.33,0.08l-0.86,0c-0.11,0-0.2-0.04-0.29-0.12c-0.08-0.08-0.12-0.17-0.11-0.28l0.58-5.99        c0.04-0.3,0.19-0.45,0.45-0.45l6.23,0.03c0.13,0,0.23,0.04,0.31,0.11c0.07,0.07,0.11,0.17,0.11,0.31l0,0.67        c0,0.12-0.04,0.22-0.12,0.29s-0.18,0.11-0.3,0.11l-5.18-0.02l-0.34,3.62c0.58-0.41,1.35-0.61,2.32-0.6        c0.8,0,1.54,0.17,2.19,0.49c0.66,0.32,1.18,0.79,1.57,1.4c0.39,0.61,0.58,1.34,0.58,2.18c0,0.89-0.2,1.65-0.59,2.29        c-0.39,0.64-0.93,1.12-1.63,1.45c-0.69,0.33-1.48,0.49-2.37,0.49C398.41,453.38,397.63,453.22,396.97,452.89z"/>
						<path class="st2" d="M405.87,443.77c-0.05-0.07-0.07-0.16-0.05-0.28l0.41-2.52c0.05-0.35,0.22-0.52,0.51-0.52l1.15,0        c0.08,0,0.15,0.03,0.21,0.09c0.05,0.06,0.08,0.13,0.08,0.22c0,0.12-0.02,0.22-0.05,0.29l-0.95,2.43        c-0.06,0.13-0.13,0.23-0.2,0.3c-0.07,0.07-0.18,0.1-0.32,0.1l-0.56,0C405.99,443.87,405.92,443.84,405.87,443.77z"/>
						<path class="st2" d="M414.69,456.9c-0.07-0.08-0.11-0.18-0.11-0.3l0.08-19.04c0-0.12,0.04-0.22,0.11-0.3        c0.07-0.08,0.17-0.12,0.29-0.12l0.67,0c0.12,0,0.22,0.04,0.3,0.12c0.08,0.08,0.12,0.18,0.12,0.3l-0.08,19.04        c0,0.12-0.04,0.22-0.12,0.3c-0.08,0.08-0.18,0.12-0.3,0.12l-0.67,0C414.86,457.01,414.76,456.97,414.69,456.9z"/>
						<path class="st2" d="M426.51,453.2c-0.07-0.08-0.11-0.18-0.11-0.3l0.04-10.15l-3.03,2.31c-0.08,0.07-0.17,0.11-0.27,0.11        c-0.11,0-0.21-0.06-0.3-0.18l-0.43-0.56c-0.06-0.08-0.09-0.17-0.09-0.25c0-0.13,0.06-0.24,0.18-0.32l3.92-3.01        c0.13-0.08,0.29-0.12,0.47-0.12l0.85,0c0.12,0,0.22,0.04,0.3,0.12c0.08,0.08,0.12,0.18,0.12,0.3l-0.05,11.77        c0,0.12-0.04,0.22-0.12,0.3c-0.08,0.08-0.18,0.12-0.3,0.12l-0.88,0C426.68,453.32,426.58,453.28,426.51,453.2z"/>
						<path class="st2" d="M430.82,453.22c-0.08-0.08-0.12-0.18-0.12-0.3l0.01-1.24c0-0.12,0.04-0.22,0.12-0.3        c0.08-0.08,0.18-0.12,0.3-0.12l1.24,0c0.12,0,0.22,0.04,0.3,0.13c0.08,0.08,0.12,0.19,0.12,0.31l0,1.24        c0,0.12-0.04,0.22-0.12,0.3c-0.08,0.08-0.18,0.12-0.3,0.12l-1.24,0C431,453.34,430.9,453.3,430.82,453.22z"/>
						<path class="st2" d="M436.88,453.06c-0.66-0.33-1.16-0.75-1.51-1.28c-0.35-0.52-0.53-1.08-0.55-1.68v-0.04        c0-0.1,0.04-0.17,0.11-0.23c0.07-0.06,0.16-0.09,0.25-0.09l0.88,0c0.25,0,0.41,0.13,0.48,0.4c0.18,0.65,0.51,1.13,0.99,1.45        c0.48,0.32,1.04,0.48,1.68,0.49c0.82,0,1.5-0.24,2.04-0.74c0.54-0.5,0.82-1.18,0.82-2.06c0-0.8-0.26-1.44-0.8-1.92        c-0.54-0.47-1.21-0.71-2.03-0.72c-0.43,0-0.78,0.05-1.04,0.16c-0.26,0.11-0.54,0.26-0.81,0.46c-0.16,0.12-0.29,0.21-0.39,0.26        c-0.1,0.05-0.21,0.08-0.33,0.08l-0.86,0c-0.11,0-0.2-0.04-0.29-0.12c-0.08-0.08-0.12-0.17-0.11-0.28l0.58-5.99        c0.04-0.3,0.19-0.45,0.45-0.45l6.23,0.03c0.13,0,0.23,0.04,0.31,0.11c0.07,0.07,0.11,0.17,0.11,0.31l0,0.67        c0,0.12-0.04,0.22-0.12,0.29c-0.08,0.07-0.18,0.11-0.3,0.11l-5.18-0.02l-0.34,3.62c0.58-0.41,1.35-0.61,2.33-0.6        c0.8,0,1.54,0.17,2.19,0.49c0.66,0.32,1.18,0.79,1.57,1.4s0.58,1.34,0.58,2.18c0,0.89-0.2,1.65-0.59,2.29        s-0.93,1.12-1.63,1.45c-0.69,0.33-1.48,0.49-2.37,0.49C438.32,453.55,437.54,453.38,436.88,453.06z"/>
						<path class="st2" d="M450.53,453.3c-0.08-0.08-0.12-0.18-0.12-0.3l0.04-8.53c0-0.12,0.04-0.22,0.12-0.3        c0.08-0.08,0.18-0.12,0.3-0.12l0.76,0c0.12,0,0.22,0.04,0.29,0.12c0.07,0.08,0.11,0.18,0.11,0.3l0,0.61        c0.65-0.8,1.53-1.2,2.63-1.2c1.32,0.01,2.25,0.56,2.8,1.67c0.29-0.5,0.7-0.9,1.24-1.2c0.54-0.3,1.13-0.45,1.79-0.44        c0.98,0,1.79,0.34,2.41,1.02c0.62,0.68,0.93,1.65,0.92,2.92l-0.02,5.2c0,0.12-0.04,0.22-0.12,0.3        c-0.08,0.08-0.18,0.12-0.3,0.12l-0.77,0c-0.12,0-0.22-0.04-0.3-0.12c-0.08-0.08-0.12-0.18-0.12-0.3l0.02-5.04        c0-0.96-0.19-1.65-0.58-2.06c-0.4-0.42-0.92-0.62-1.56-0.63c-0.58,0-1.07,0.21-1.49,0.63c-0.42,0.42-0.62,1.1-0.63,2.04        l-0.02,5.04c0,0.12-0.04,0.22-0.12,0.3c-0.08,0.08-0.18,0.12-0.3,0.12l-0.79,0c-0.12,0-0.22-0.04-0.3-0.12        c-0.08-0.08-0.12-0.18-0.12-0.3l0.02-5.04c0-0.95-0.2-1.63-0.61-2.05c-0.41-0.42-0.92-0.63-1.54-0.64        c-0.58,0-1.07,0.21-1.49,0.62c-0.42,0.42-0.63,1.09-0.63,2.03l-0.02,5.06c0,0.12-0.04,0.22-0.12,0.3        c-0.08,0.08-0.18,0.12-0.3,0.12l-0.79,0C450.71,453.42,450.61,453.38,450.53,453.3z"/>
						<path class="st2" d="M470.12,453.39c-0.07-0.07-0.11-0.16-0.11-0.27c0-0.11,0.04-0.22,0.13-0.34l3.15-4.06l-2.92-3.88        c-0.1-0.13-0.14-0.24-0.14-0.33c0-0.11,0.04-0.2,0.12-0.27c0.08-0.07,0.17-0.11,0.26-0.11l0.86,0c0.18,0,0.34,0.1,0.47,0.29        l2.42,3.16l2.44-3.14c0.07-0.1,0.14-0.17,0.21-0.21c0.07-0.05,0.15-0.07,0.26-0.07l0.83,0c0.1,0,0.18,0.04,0.25,0.11        c0.07,0.07,0.11,0.16,0.11,0.25c0,0.12-0.04,0.23-0.13,0.34l-2.99,3.89l3.12,4.04c0.08,0.12,0.12,0.23,0.12,0.34        c0,0.11-0.04,0.2-0.11,0.27c-0.07,0.07-0.16,0.11-0.27,0.11l-0.88,0c-0.18,0-0.34-0.09-0.47-0.27l-2.56-3.34l-2.59,3.32        c-0.07,0.08-0.14,0.15-0.21,0.2c-0.07,0.05-0.15,0.07-0.26,0.07l-0.85,0C470.28,453.5,470.19,453.46,470.12,453.39z"/>
						<path class="st2" d="M488.25,453.46c-0.07-0.08-0.11-0.18-0.11-0.3l0.04-10.15l-3.03,2.31c-0.08,0.07-0.17,0.11-0.27,0.11        c-0.11,0-0.21-0.06-0.31-0.18l-0.43-0.56c-0.06-0.08-0.09-0.17-0.09-0.25c0-0.13,0.06-0.24,0.18-0.32l3.92-3.01        c0.13-0.08,0.29-0.12,0.47-0.12l0.85,0c0.12,0,0.22,0.04,0.3,0.12c0.08,0.08,0.12,0.18,0.11,0.3l-0.05,11.77        c0,0.12-0.04,0.22-0.12,0.3c-0.08,0.08-0.18,0.12-0.3,0.12l-0.88,0C488.42,453.58,488.32,453.54,488.25,453.46z"/>
						<path class="st2" d="M492.56,453.47c-0.08-0.08-0.12-0.18-0.12-0.3l0.01-1.24c0-0.12,0.04-0.22,0.12-0.31        c0.08-0.08,0.18-0.12,0.3-0.12l1.24,0c0.12,0,0.22,0.04,0.3,0.13s0.12,0.19,0.12,0.31l-0.01,1.24c0,0.12-0.04,0.22-0.12,0.3        c-0.08,0.08-0.18,0.12-0.3,0.12l-1.24,0C492.74,453.59,492.64,453.55,492.56,453.47z"/>
						<path class="st2" d="M498.62,453.31c-0.66-0.33-1.16-0.75-1.51-1.28c-0.34-0.52-0.53-1.09-0.55-1.69v-0.04        c0-0.1,0.04-0.17,0.11-0.23s0.16-0.09,0.25-0.09l0.88,0c0.25,0,0.41,0.13,0.48,0.4c0.18,0.65,0.51,1.13,0.99,1.45        c0.49,0.32,1.04,0.48,1.68,0.48c0.81,0,1.49-0.24,2.04-0.74c0.54-0.5,0.81-1.18,0.82-2.06c0-0.8-0.26-1.44-0.8-1.92        c-0.54-0.48-1.22-0.72-2.03-0.72c-0.43,0-0.78,0.05-1.04,0.16c-0.27,0.11-0.54,0.26-0.81,0.46c-0.16,0.12-0.29,0.21-0.39,0.26        c-0.1,0.05-0.21,0.08-0.33,0.08l-0.86,0c-0.11,0-0.2-0.04-0.29-0.12c-0.08-0.08-0.12-0.17-0.11-0.28l0.58-5.99        c0.04-0.3,0.19-0.45,0.45-0.45l6.23,0.03c0.13,0,0.23,0.04,0.31,0.11c0.07,0.07,0.11,0.17,0.11,0.31l0,0.67        c0,0.12-0.04,0.22-0.12,0.29c-0.08,0.07-0.18,0.11-0.3,0.11l-5.18-0.02l-0.34,3.62c0.58-0.41,1.35-0.61,2.32-0.6        c0.8,0,1.54,0.17,2.19,0.49c0.66,0.32,1.18,0.79,1.57,1.4c0.39,0.61,0.58,1.34,0.58,2.18c0,0.89-0.2,1.65-0.59,2.29        c-0.39,0.64-0.93,1.12-1.62,1.45c-0.69,0.33-1.48,0.49-2.37,0.49C500.06,453.8,499.28,453.64,498.62,453.31z"/>
						<path class="st2" d="M512.27,453.56c-0.08-0.08-0.12-0.18-0.12-0.3l0.04-8.53c0-0.12,0.04-0.22,0.12-0.3s0.18-0.12,0.3-0.12        l0.76,0c0.12,0,0.22,0.04,0.29,0.12c0.07,0.08,0.11,0.18,0.11,0.3l0,0.61c0.65-0.8,1.53-1.2,2.63-1.2        c1.32,0.01,2.25,0.56,2.8,1.67c0.29-0.5,0.7-0.9,1.24-1.2c0.54-0.3,1.13-0.45,1.79-0.44c0.98,0,1.79,0.34,2.41,1.02        c0.62,0.68,0.93,1.65,0.92,2.92l-0.02,5.2c0,0.12-0.04,0.22-0.12,0.3c-0.08,0.08-0.18,0.12-0.3,0.12l-0.77,0        c-0.12,0-0.22-0.04-0.3-0.12c-0.08-0.08-0.12-0.18-0.12-0.3l0.02-5.04c0-0.96-0.19-1.65-0.58-2.06        c-0.4-0.42-0.92-0.62-1.56-0.63c-0.58,0-1.07,0.21-1.49,0.63s-0.62,1.1-0.63,2.04l-0.02,5.04c0,0.12-0.04,0.22-0.12,0.3        c-0.08,0.08-0.18,0.12-0.3,0.12l-0.79,0c-0.12,0-0.22-0.04-0.3-0.12c-0.08-0.08-0.12-0.18-0.12-0.3l0.02-5.04        c0-0.95-0.2-1.63-0.61-2.05c-0.41-0.42-0.92-0.63-1.54-0.64c-0.58,0-1.07,0.21-1.49,0.62c-0.42,0.42-0.63,1.09-0.63,2.03        l-0.02,5.06c0,0.12-0.04,0.22-0.12,0.3c-0.08,0.08-0.18,0.12-0.3,0.12l-0.79,0C512.44,453.67,512.35,453.63,512.27,453.56z"/>
						<path class="st2" d="M363.04,472.47c-0.5-0.24-0.89-0.57-1.18-0.99c-0.29-0.42-0.44-0.88-0.44-1.38        c0-0.79,0.33-1.44,0.98-1.94s1.53-0.83,2.65-1l2.7-0.37l0-0.52c0.01-1.24-0.71-1.86-2.13-1.86c-0.55,0-1,0.11-1.33,0.33        s-0.58,0.48-0.74,0.78c-0.05,0.12-0.1,0.2-0.15,0.24c-0.05,0.04-0.13,0.06-0.23,0.06l-0.7,0c-0.11,0-0.2-0.04-0.28-0.12        c-0.08-0.08-0.12-0.17-0.12-0.28c0-0.28,0.13-0.6,0.39-0.96s0.66-0.68,1.2-0.95c0.54-0.27,1.2-0.4,1.98-0.4        c1.34,0.01,2.3,0.32,2.88,0.95c0.58,0.63,0.87,1.41,0.86,2.34l-0.02,5.85c0,0.12-0.04,0.22-0.12,0.3        c-0.08,0.08-0.18,0.12-0.3,0.12l-0.79,0c-0.12,0-0.22-0.04-0.29-0.12s-0.11-0.18-0.11-0.3l0-0.79        c-0.27,0.4-0.65,0.72-1.16,0.99c-0.51,0.26-1.15,0.39-1.95,0.39C364.08,472.84,363.54,472.72,363.04,472.47z M366.98,470.76        c0.51-0.51,0.76-1.26,0.77-2.25l0-0.5l-2.11,0.3c-0.86,0.12-1.52,0.32-1.96,0.6c-0.45,0.29-0.67,0.65-0.67,1.08        c0,0.49,0.2,0.87,0.6,1.14c0.4,0.27,0.88,0.4,1.43,0.4C365.83,471.53,366.48,471.28,366.98,470.76z"/>
						<path class="st2" d="M372.72,471.79c-0.72-0.73-1.09-1.75-1.12-3.05l-0.02-0.72l0.02-0.72c0.04-1.31,0.42-2.32,1.15-3.05        c0.72-0.72,1.73-1.08,3.01-1.08c0.86,0,1.59,0.16,2.18,0.47c0.59,0.31,1.04,0.69,1.33,1.15c0.29,0.46,0.45,0.91,0.47,1.37        c0.01,0.11-0.03,0.2-0.12,0.29c-0.09,0.08-0.19,0.12-0.3,0.12l-0.79,0c-0.12,0-0.21-0.03-0.27-0.08        c-0.06-0.05-0.12-0.15-0.18-0.3c-0.21-0.59-0.51-1.01-0.89-1.25c-0.38-0.25-0.85-0.37-1.43-0.38c-0.76,0-1.36,0.23-1.8,0.7        c-0.45,0.47-0.69,1.18-0.73,2.14l-0.02,0.63l0.01,0.63c0.03,0.96,0.27,1.67,0.71,2.14s1.04,0.71,1.8,0.71        c0.59,0,1.07-0.12,1.44-0.36c0.37-0.24,0.67-0.66,0.89-1.25c0.06-0.14,0.12-0.24,0.18-0.3c0.06-0.05,0.15-0.08,0.27-0.08        l0.79,0c0.11,0,0.21,0.04,0.3,0.13c0.09,0.08,0.13,0.18,0.12,0.29c-0.03,0.44-0.19,0.89-0.48,1.35        c-0.3,0.46-0.74,0.84-1.34,1.15c-0.59,0.31-1.32,0.46-2.19,0.46C374.44,472.88,373.44,472.52,372.72,471.79z"/>
						<path class="st2" d="M382.62,471.83c-0.72-0.73-1.09-1.75-1.12-3.06l-0.02-0.72l0.02-0.72c0.04-1.31,0.42-2.32,1.15-3.05        s1.73-1.08,3.01-1.08c0.86,0,1.59,0.16,2.18,0.47c0.59,0.31,1.04,0.69,1.33,1.15c0.29,0.46,0.45,0.91,0.47,1.37        c0.01,0.11-0.03,0.2-0.12,0.29c-0.09,0.08-0.19,0.12-0.3,0.12l-0.79,0c-0.12,0-0.21-0.03-0.27-0.08        c-0.06-0.05-0.12-0.15-0.18-0.3c-0.21-0.59-0.51-1.01-0.89-1.25c-0.38-0.25-0.85-0.37-1.43-0.38c-0.76,0-1.36,0.23-1.8,0.7        c-0.45,0.47-0.69,1.18-0.73,2.14l-0.02,0.63l0.01,0.63c0.03,0.96,0.27,1.67,0.71,2.14s1.04,0.71,1.8,0.71        c0.59,0,1.07-0.12,1.44-0.36c0.37-0.24,0.67-0.66,0.89-1.25c0.06-0.14,0.12-0.24,0.18-0.3c0.06-0.05,0.15-0.08,0.27-0.08        l0.79,0c0.11,0,0.21,0.04,0.3,0.13c0.09,0.08,0.13,0.18,0.12,0.29c-0.03,0.44-0.19,0.89-0.48,1.35        c-0.3,0.46-0.74,0.84-1.34,1.15c-0.59,0.31-1.32,0.46-2.19,0.46C384.34,472.92,383.34,472.56,382.62,471.83z"/>
						<path class="st2" d="M392.56,471.81c-0.73-0.76-1.13-1.81-1.19-3.13l-0.02-0.61l0.02-0.59c0.08-1.3,0.48-2.33,1.22-3.09        c0.74-0.77,1.71-1.15,2.94-1.14c1.32,0.01,2.34,0.43,3.06,1.27c0.72,0.84,1.08,1.99,1.08,3.42l0,0.32        c0,0.12-0.04,0.22-0.12,0.3c-0.08,0.08-0.18,0.12-0.3,0.12l-6.25-0.03v0.16c0.03,0.78,0.27,1.45,0.71,2        c0.44,0.55,1.03,0.83,1.76,0.83c0.56,0,1.02-0.11,1.38-0.33c0.36-0.22,0.62-0.45,0.8-0.69c0.11-0.14,0.19-0.23,0.25-0.26        c0.06-0.03,0.16-0.04,0.31-0.04l0.79,0c0.11,0,0.2,0.03,0.28,0.09c0.08,0.06,0.12,0.14,0.12,0.24c0,0.26-0.16,0.58-0.49,0.95        c-0.33,0.37-0.79,0.69-1.38,0.96c-0.6,0.27-1.28,0.4-2.04,0.4C394.26,472.96,393.29,472.58,392.56,471.81z M398.03,467.45        v-0.05c0-0.84-0.22-1.52-0.68-2.05c-0.45-0.53-1.06-0.8-1.83-0.8c-0.78,0-1.39,0.26-1.84,0.78c-0.45,0.53-0.67,1.21-0.67,2.05        l0,0.05L398.03,467.45z"/>
						<path class="st2" d="M402.95,472.6c-0.57-0.27-0.99-0.58-1.27-0.93c-0.27-0.35-0.41-0.64-0.41-0.86        c0-0.12,0.04-0.21,0.13-0.28c0.08-0.06,0.17-0.1,0.27-0.1l0.76,0c0.07,0,0.13,0.01,0.17,0.04c0.04,0.03,0.1,0.08,0.17,0.16        c0.27,0.34,0.58,0.6,0.92,0.8c0.34,0.19,0.8,0.29,1.38,0.29c0.65,0,1.17-0.11,1.56-0.35c0.39-0.24,0.59-0.58,0.59-1.04        c0-0.3-0.08-0.54-0.25-0.72c-0.17-0.18-0.45-0.34-0.83-0.49c-0.39-0.15-0.97-0.3-1.74-0.48c-1.04-0.23-1.78-0.57-2.21-1        c-0.43-0.43-0.64-0.99-0.64-1.68c0-0.44,0.14-0.87,0.4-1.29c0.27-0.41,0.66-0.75,1.18-1c0.52-0.25,1.14-0.38,1.86-0.38        c0.76,0,1.4,0.13,1.93,0.39c0.53,0.25,0.93,0.55,1.2,0.89s0.4,0.62,0.4,0.85c0,0.11-0.04,0.2-0.12,0.27        c-0.08,0.07-0.17,0.11-0.28,0.11l-0.68,0c-0.17,0-0.29-0.07-0.36-0.2c-0.2-0.23-0.37-0.41-0.51-0.53        c-0.14-0.13-0.34-0.23-0.6-0.33s-0.59-0.14-0.99-0.14c-0.59,0-1.04,0.12-1.35,0.36c-0.31,0.24-0.47,0.57-0.47,0.98        c0,0.25,0.06,0.46,0.2,0.64c0.13,0.17,0.38,0.34,0.75,0.49c0.37,0.15,0.92,0.31,1.65,0.47c1.14,0.25,1.94,0.59,2.42,1.04        c0.47,0.45,0.71,1.02,0.7,1.71c0,0.52-0.15,0.98-0.45,1.4s-0.74,0.75-1.32,0.99c-0.58,0.24-1.28,0.35-2.08,0.35        C404.22,473,403.52,472.87,402.95,472.6z"/>
						<path class="st2" d="M412.09,472.63c-0.57-0.27-0.99-0.58-1.26-0.93c-0.28-0.35-0.41-0.64-0.41-0.86        c0-0.12,0.04-0.21,0.13-0.28c0.08-0.07,0.17-0.1,0.27-0.1l0.76,0c0.07,0,0.13,0.01,0.17,0.04c0.04,0.02,0.1,0.08,0.17,0.16        c0.27,0.34,0.58,0.6,0.92,0.8c0.34,0.19,0.8,0.29,1.38,0.29c0.65,0,1.17-0.11,1.56-0.35c0.39-0.24,0.59-0.58,0.59-1.04        c0-0.3-0.08-0.54-0.25-0.72s-0.45-0.34-0.83-0.49s-0.97-0.3-1.73-0.48c-1.04-0.23-1.78-0.57-2.21-1        c-0.43-0.43-0.64-0.99-0.64-1.68c0-0.44,0.14-0.87,0.4-1.29c0.27-0.41,0.66-0.75,1.18-1c0.52-0.25,1.14-0.38,1.86-0.38        c0.76,0,1.4,0.13,1.93,0.39c0.53,0.25,0.93,0.55,1.2,0.89c0.27,0.34,0.4,0.62,0.4,0.85c0,0.11-0.04,0.2-0.12,0.27        c-0.08,0.07-0.17,0.11-0.28,0.11l-0.68,0c-0.17,0-0.29-0.07-0.36-0.2c-0.2-0.23-0.37-0.41-0.51-0.53        c-0.14-0.13-0.34-0.23-0.6-0.33c-0.26-0.09-0.59-0.14-0.99-0.14c-0.59,0-1.04,0.12-1.35,0.36c-0.31,0.24-0.47,0.57-0.47,0.98        c0,0.25,0.06,0.46,0.2,0.64c0.13,0.17,0.38,0.34,0.75,0.49c0.37,0.15,0.92,0.31,1.65,0.47c1.14,0.24,1.94,0.59,2.42,1.04        c0.47,0.45,0.71,1.02,0.7,1.71c0,0.52-0.15,0.98-0.45,1.4c-0.29,0.42-0.73,0.75-1.32,0.98s-1.28,0.35-2.08,0.35        C413.36,473.04,412.66,472.91,412.09,472.63z"/>
						<path class="st2" d="M420.15,461.65c-0.08-0.08-0.12-0.18-0.12-0.3l0-0.94c0-0.12,0.04-0.22,0.12-0.31        c0.08-0.08,0.18-0.12,0.3-0.12l1.06,0c0.12,0,0.22,0.04,0.31,0.13c0.08,0.08,0.12,0.19,0.12,0.31l0,0.94        c0,0.12-0.04,0.22-0.13,0.3c-0.08,0.08-0.19,0.12-0.31,0.12l-1.06,0C420.33,461.77,420.23,461.73,420.15,461.65z         M420.25,472.77c-0.08-0.08-0.12-0.18-0.12-0.3l0.04-8.53c0-0.12,0.04-0.22,0.12-0.3c0.08-0.08,0.18-0.12,0.3-0.12l0.79,0        c0.12,0,0.22,0.04,0.3,0.12c0.08,0.08,0.12,0.18,0.12,0.3l-0.04,8.53c0,0.12-0.04,0.22-0.12,0.3        c-0.08,0.08-0.18,0.12-0.3,0.12l-0.79,0C420.42,472.89,420.32,472.85,420.25,472.77z"/>
						<path class="st2" d="M426.06,471.73l0,0.77c0,0.12-0.04,0.22-0.12,0.3c-0.08,0.08-0.18,0.12-0.3,0.12l-0.76,0        c-0.12,0-0.22-0.04-0.3-0.12c-0.08-0.08-0.12-0.18-0.12-0.3l0.05-11.95c0-0.13,0.04-0.23,0.12-0.3        c0.08-0.07,0.18-0.11,0.3-0.11l0.81,0c0.12,0,0.22,0.04,0.3,0.12c0.08,0.08,0.12,0.18,0.12,0.3l-0.02,4.16        c0.68-0.88,1.65-1.33,2.92-1.32c1.26,0,2.2,0.42,2.83,1.25c0.63,0.82,0.96,1.85,0.99,3.09c0.01,0.13,0.02,0.31,0.02,0.54        c0,0.23-0.01,0.41-0.02,0.54c-0.04,1.24-0.38,2.26-1.01,3.08c-0.63,0.82-1.58,1.23-2.84,1.22        C427.72,473.1,426.74,472.64,426.06,471.73z M430.58,470.9c0.4-0.54,0.62-1.25,0.66-2.12c0.01-0.12,0.02-0.29,0.02-0.52        c0.01-2.3-0.84-3.46-2.54-3.47c-0.82,0-1.44,0.26-1.88,0.79c-0.44,0.53-0.67,1.16-0.7,1.9c-0.01,0.13-0.02,0.37-0.02,0.7        c0,0.32,0,0.55,0.02,0.68c0.02,0.77,0.24,1.43,0.67,1.99c0.42,0.56,1.05,0.84,1.9,0.84        C429.55,471.71,430.18,471.44,430.58,470.9z"/>
						<path class="st2" d="M435.16,461.71c-0.08-0.08-0.12-0.18-0.12-0.3l0-0.94c0-0.12,0.04-0.22,0.12-0.31        c0.08-0.08,0.18-0.13,0.3-0.12l1.06,0c0.12,0,0.22,0.04,0.31,0.13c0.08,0.08,0.12,0.19,0.12,0.31l0,0.94        c0,0.12-0.04,0.22-0.13,0.3c-0.08,0.08-0.19,0.12-0.31,0.12l-1.06,0C435.34,461.83,435.24,461.79,435.16,461.71z         M435.26,472.84c-0.08-0.08-0.12-0.18-0.12-0.3l0.04-8.53c0-0.12,0.04-0.22,0.12-0.3c0.08-0.08,0.18-0.12,0.3-0.12l0.79,0        c0.12,0,0.22,0.04,0.3,0.12c0.08,0.08,0.12,0.18,0.12,0.3l-0.04,8.53c0,0.12-0.04,0.22-0.12,0.3s-0.18,0.12-0.3,0.12l-0.79,0        C435.43,472.96,435.34,472.92,435.26,472.84z"/>
						<path class="st2" d="M439.6,472.86c-0.08-0.08-0.12-0.18-0.12-0.3l0.05-11.95c0-0.13,0.04-0.23,0.12-0.3        c0.08-0.07,0.18-0.11,0.3-0.11l0.79,0c0.12,0,0.22,0.04,0.3,0.12c0.08,0.08,0.12,0.18,0.12,0.3l-0.05,11.95        c0,0.12-0.04,0.22-0.12,0.3c-0.08,0.08-0.18,0.12-0.3,0.12l-0.79,0C439.77,472.97,439.67,472.93,439.6,472.86z"/>
						<path class="st2" d="M443.82,461.75c-0.08-0.08-0.12-0.18-0.12-0.3l0-0.94c0-0.12,0.04-0.22,0.12-0.31        c0.08-0.08,0.18-0.12,0.3-0.12l1.06,0c0.12,0,0.22,0.04,0.31,0.13c0.08,0.08,0.12,0.19,0.12,0.31l0,0.94        c0,0.12-0.04,0.22-0.13,0.3c-0.08,0.08-0.19,0.12-0.31,0.12l-1.06,0C444,461.87,443.9,461.83,443.82,461.75z M443.92,472.87        c-0.08-0.08-0.12-0.18-0.12-0.3l0.04-8.53c0-0.12,0.04-0.22,0.12-0.3c0.08-0.08,0.18-0.12,0.3-0.12l0.79,0        c0.12,0,0.22,0.04,0.3,0.12c0.08,0.08,0.12,0.18,0.12,0.3l-0.04,8.53c0,0.12-0.04,0.22-0.12,0.3        c-0.08,0.08-0.18,0.12-0.3,0.12l-0.79,0C444.09,472.99,443.99,472.95,443.92,472.87z"/>
						<path class="st2" d="M448.94,469.86l0.02-4.82l-1.42-0.01c-0.12,0-0.22-0.04-0.29-0.11c-0.07-0.07-0.11-0.17-0.11-0.29l0-0.58        c0-0.12,0.04-0.22,0.11-0.3c0.07-0.08,0.17-0.12,0.29-0.12l1.42,0.01l0.01-3.01c0-0.12,0.04-0.22,0.11-0.3        c0.07-0.08,0.17-0.12,0.29-0.12l0.79,0c0.12,0,0.22,0.04,0.3,0.12c0.08,0.08,0.12,0.18,0.12,0.3l-0.01,3.01l2.23,0.01        c0.12,0,0.22,0.04,0.3,0.12c0.08,0.08,0.12,0.18,0.12,0.3l0,0.58c0,0.12-0.04,0.22-0.12,0.29c-0.08,0.07-0.18,0.11-0.3,0.11        l-2.23-0.01l-0.02,4.7c0,0.61,0.1,1.07,0.29,1.39c0.2,0.31,0.54,0.47,1.02,0.47l1.1,0c0.12,0,0.22,0.04,0.29,0.12        c0.07,0.08,0.11,0.18,0.11,0.3l0,0.59c0,0.12-0.04,0.22-0.11,0.3c-0.07,0.08-0.17,0.12-0.29,0.12l-1.22,0        C449.86,473.01,448.93,471.96,448.94,469.86z"/>
						<path class="st2" d="M456.46,476.35c-0.07-0.07-0.11-0.16-0.11-0.25c0-0.04,0.03-0.14,0.09-0.32l1.42-3.29l-3.4-8.13        c-0.07-0.15-0.11-0.25-0.11-0.31c0.01-0.11,0.05-0.2,0.13-0.27c0.07-0.07,0.16-0.11,0.25-0.11l0.83,0        c0.19,0,0.34,0.1,0.43,0.29l2.74,6.64l2.87-6.61c0.1-0.19,0.24-0.29,0.43-0.29l0.81,0c0.1,0,0.18,0.04,0.25,0.11        c0.07,0.07,0.11,0.16,0.11,0.25c0,0.08-0.03,0.19-0.09,0.32l-5.14,11.79c-0.06,0.09-0.12,0.17-0.19,0.21        c-0.07,0.05-0.15,0.07-0.26,0.07l-0.79,0C456.62,476.46,456.53,476.43,456.46,476.35z"/>
						<path class="st2" d="M470.03,472.87c-0.57-0.27-0.99-0.58-1.26-0.93c-0.27-0.35-0.41-0.64-0.41-0.86        c0-0.12,0.04-0.21,0.13-0.28c0.08-0.06,0.17-0.1,0.27-0.1l0.76,0c0.07,0,0.13,0.01,0.17,0.04c0.04,0.03,0.1,0.08,0.17,0.16        c0.27,0.34,0.58,0.6,0.92,0.8c0.34,0.19,0.8,0.29,1.38,0.29c0.65,0,1.17-0.11,1.56-0.35c0.39-0.24,0.59-0.58,0.59-1.04        c0-0.3-0.08-0.54-0.25-0.72c-0.17-0.18-0.45-0.34-0.83-0.49c-0.39-0.15-0.97-0.3-1.74-0.48c-1.04-0.23-1.78-0.57-2.21-1        c-0.43-0.43-0.64-0.99-0.64-1.68c0-0.44,0.13-0.87,0.4-1.29s0.66-0.75,1.18-1c0.52-0.25,1.15-0.38,1.87-0.38        c0.76,0,1.4,0.13,1.93,0.39c0.53,0.25,0.93,0.55,1.2,0.89c0.27,0.34,0.4,0.62,0.4,0.85c0,0.11-0.04,0.2-0.12,0.27        s-0.17,0.11-0.28,0.11l-0.68,0c-0.17,0-0.29-0.07-0.36-0.2c-0.2-0.23-0.37-0.41-0.51-0.53c-0.14-0.13-0.34-0.23-0.6-0.33        c-0.26-0.09-0.59-0.14-0.99-0.14c-0.59,0-1.04,0.12-1.35,0.36c-0.31,0.24-0.47,0.57-0.47,0.98c0,0.25,0.06,0.46,0.19,0.64        c0.13,0.17,0.38,0.34,0.75,0.49c0.37,0.15,0.92,0.31,1.65,0.47c1.14,0.25,1.95,0.59,2.42,1.04c0.47,0.45,0.71,1.02,0.7,1.71        c0,0.52-0.15,0.98-0.45,1.4s-0.74,0.75-1.32,0.99c-0.58,0.24-1.28,0.35-2.08,0.35C471.3,473.28,470.6,473.15,470.03,472.87z"/>
						<path class="st2" d="M478.19,476.44c-0.08-0.07-0.12-0.17-0.12-0.31l0.05-11.95c0-0.13,0.04-0.23,0.12-0.3        c0.08-0.07,0.18-0.11,0.3-0.11l0.76,0c0.13,0,0.23,0.04,0.31,0.11c0.07,0.07,0.11,0.17,0.11,0.31l0,0.79        c0.7-0.92,1.69-1.38,2.98-1.37c1.26,0.01,2.2,0.41,2.83,1.21c0.63,0.8,0.96,1.82,0.99,3.06c0.01,0.13,0.02,0.34,0.02,0.61        c0,0.28-0.01,0.48-0.02,0.61c-0.04,1.22-0.38,2.24-1.01,3.04c-0.63,0.8-1.58,1.2-2.84,1.19c-1.28,0-2.25-0.46-2.91-1.38        l-0.02,4.19c0,0.12-0.04,0.22-0.12,0.3c-0.08,0.08-0.18,0.12-0.3,0.12l-0.81,0C478.37,476.55,478.27,476.52,478.19,476.44z         M484.2,471.12c0.4-0.54,0.62-1.25,0.66-2.12c0.01-0.12,0.02-0.29,0.02-0.52c0.01-2.3-0.84-3.46-2.54-3.47        c-0.84,0-1.47,0.27-1.9,0.83c-0.43,0.56-0.66,1.21-0.68,1.97c-0.01,0.13-0.02,0.37-0.02,0.7c0,0.34,0,0.57,0.01,0.7        c0.02,0.73,0.25,1.37,0.69,1.9c0.44,0.54,1.06,0.81,1.88,0.81C483.17,471.93,483.8,471.66,484.2,471.12z"/>
						<path class="st2" d="M489.73,473c-0.5-0.24-0.89-0.57-1.18-0.99c-0.29-0.42-0.44-0.87-0.44-1.38c0-0.79,0.33-1.44,0.98-1.94        c0.65-0.5,1.53-0.83,2.65-1l2.7-0.37l0-0.52c0-1.24-0.71-1.86-2.13-1.86c-0.55,0-1,0.11-1.33,0.33s-0.58,0.48-0.74,0.78        c-0.05,0.12-0.1,0.2-0.15,0.24c-0.05,0.04-0.13,0.06-0.23,0.06l-0.7,0c-0.11,0-0.2-0.04-0.28-0.12        c-0.08-0.08-0.12-0.17-0.12-0.28c0-0.28,0.13-0.6,0.39-0.96s0.66-0.68,1.2-0.95c0.54-0.27,1.2-0.4,1.98-0.4        c1.34,0.01,2.31,0.32,2.88,0.95c0.58,0.63,0.87,1.41,0.86,2.34l-0.02,5.85c0,0.12-0.04,0.22-0.12,0.3        c-0.08,0.08-0.18,0.12-0.3,0.12l-0.79,0c-0.12,0-0.21-0.04-0.29-0.12c-0.07-0.08-0.11-0.18-0.11-0.3l0-0.79        c-0.27,0.39-0.65,0.72-1.16,0.99s-1.15,0.39-1.94,0.39C490.77,473.36,490.22,473.24,489.73,473z M493.67,471.29        c0.51-0.51,0.76-1.26,0.76-2.25l0-0.5l-2.11,0.3c-0.87,0.12-1.52,0.32-1.97,0.6c-0.44,0.29-0.67,0.65-0.67,1.08        c0,0.49,0.2,0.87,0.6,1.14c0.4,0.27,0.88,0.4,1.43,0.4C492.51,472.06,493.16,471.8,493.67,471.29z"/>
						<path class="st2" d="M499.4,472.31c-0.72-0.73-1.09-1.75-1.12-3.06l-0.02-0.72l0.02-0.72c0.04-1.31,0.42-2.32,1.15-3.05        c0.72-0.72,1.73-1.08,3.01-1.08c0.86,0,1.59,0.16,2.19,0.47c0.59,0.31,1.03,0.69,1.33,1.15c0.29,0.46,0.45,0.91,0.47,1.37        c0.01,0.11-0.03,0.2-0.12,0.29c-0.09,0.08-0.19,0.12-0.3,0.12l-0.79,0c-0.12,0-0.21-0.03-0.27-0.08        c-0.06-0.05-0.12-0.15-0.18-0.3c-0.21-0.59-0.51-1.01-0.88-1.25c-0.38-0.25-0.85-0.37-1.43-0.38c-0.76,0-1.36,0.23-1.8,0.7        c-0.45,0.47-0.69,1.18-0.73,2.14l-0.02,0.63l0.02,0.63c0.03,0.96,0.27,1.67,0.71,2.14c0.44,0.47,1.04,0.71,1.8,0.71        c0.59,0,1.07-0.12,1.44-0.36c0.37-0.25,0.67-0.66,0.89-1.25c0.06-0.14,0.12-0.24,0.18-0.3c0.06-0.05,0.15-0.08,0.27-0.08        l0.79,0c0.11,0,0.21,0.04,0.3,0.13s0.13,0.18,0.12,0.29c-0.03,0.44-0.19,0.89-0.48,1.35c-0.3,0.46-0.74,0.84-1.34,1.15        c-0.6,0.31-1.33,0.46-2.19,0.46C501.12,473.41,500.12,473.04,499.4,472.31z"/>
						<path class="st2" d="M509.34,472.3c-0.73-0.76-1.13-1.81-1.19-3.13l-0.02-0.61l0.02-0.59c0.08-1.3,0.48-2.33,1.22-3.09        c0.73-0.77,1.71-1.15,2.94-1.14c1.32,0.01,2.34,0.43,3.06,1.27c0.72,0.84,1.08,1.99,1.07,3.42l0,0.32        c0,0.12-0.04,0.22-0.12,0.3c-0.08,0.08-0.18,0.12-0.3,0.12l-6.25-0.03l0,0.16c0.03,0.78,0.27,1.45,0.71,2        c0.44,0.55,1.03,0.83,1.76,0.83c0.56,0,1.02-0.11,1.38-0.33c0.35-0.22,0.62-0.45,0.8-0.69c0.11-0.14,0.19-0.23,0.25-0.26        c0.06-0.03,0.16-0.04,0.31-0.04l0.79,0c0.11,0,0.2,0.03,0.28,0.09c0.08,0.06,0.12,0.14,0.12,0.24c0,0.26-0.17,0.58-0.49,0.95        c-0.32,0.37-0.78,0.69-1.38,0.96c-0.59,0.27-1.28,0.4-2.04,0.4C511.04,473.45,510.07,473.06,509.34,472.3z M514.81,467.94        v-0.05c0-0.84-0.22-1.52-0.68-2.05c-0.45-0.53-1.06-0.8-1.83-0.8c-0.78,0-1.39,0.26-1.84,0.79c-0.45,0.53-0.67,1.21-0.67,2.05        v0.05L514.81,467.94z"/>
					</g>
				</g>
			</g>
		</g>
		<g id="MTEXT_11_">
			<g>
				<g>
					<g>
						<path class="st2" d="M123.21,383.54c-0.07-0.08-0.11-0.18-0.11-0.3l0.05-11.75c0-0.13,0.04-0.24,0.11-0.31        s0.17-0.12,0.29-0.12l7.31,0.03c0.13,0,0.24,0.04,0.31,0.12c0.08,0.08,0.12,0.18,0.12,0.32l0,0.67c0,0.12-0.04,0.22-0.12,0.3        c-0.08,0.08-0.18,0.12-0.32,0.12l-6.03-0.03l-0.02,4.27l5.67,0.02c0.13,0,0.24,0.04,0.31,0.12c0.08,0.08,0.12,0.18,0.12,0.3        l0,0.68c0,0.12-0.04,0.22-0.13,0.3c-0.08,0.08-0.19,0.12-0.31,0.12l-5.67-0.02l-0.02,4.9c0,0.12-0.04,0.22-0.13,0.3        c-0.08,0.08-0.19,0.12-0.31,0.12l-0.85,0C123.38,383.66,123.28,383.62,123.21,383.54z"/>
						<path class="st2" d="M134.02,382.78c-0.62-0.74-0.93-1.72-0.92-2.95l0.02-5.08c0-0.12,0.04-0.22,0.12-0.3        c0.08-0.08,0.18-0.12,0.3-0.12l0.83,0c0.12,0,0.22,0.04,0.3,0.12c0.08,0.08,0.12,0.18,0.12,0.3l-0.02,4.99        c-0.01,1.82,0.78,2.74,2.37,2.75c0.77,0,1.38-0.24,1.83-0.72c0.45-0.49,0.68-1.15,0.68-2l0.02-4.99c0-0.12,0.04-0.22,0.12-0.3        c0.08-0.08,0.18-0.12,0.3-0.12l0.83,0c0.12,0,0.22,0.04,0.3,0.12c0.08,0.08,0.12,0.18,0.12,0.3l-0.04,8.53        c0,0.12-0.04,0.22-0.12,0.3c-0.08,0.08-0.18,0.12-0.3,0.12l-0.77,0c-0.12,0-0.22-0.04-0.3-0.12s-0.12-0.18-0.12-0.3l0-0.81        c-0.35,0.47-0.76,0.81-1.23,1.05c-0.47,0.23-1.06,0.35-1.78,0.34C135.52,383.89,134.64,383.52,134.02,382.78z"/>
						<path class="st2" d="M144.1,383.63c-0.08-0.08-0.12-0.18-0.12-0.3l0.05-11.95c0-0.13,0.04-0.23,0.12-0.31        c0.08-0.07,0.18-0.11,0.3-0.11l0.79,0c0.12,0,0.22,0.04,0.3,0.12c0.08,0.08,0.12,0.18,0.12,0.3l-0.05,11.95        c0,0.12-0.04,0.22-0.12,0.3c-0.08,0.08-0.18,0.12-0.3,0.12l-0.79,0C144.28,383.75,144.18,383.71,144.1,383.63z"/>
						<path class="st2" d="M148.44,383.65c-0.08-0.08-0.12-0.18-0.12-0.3l0.05-11.95c0-0.13,0.04-0.23,0.12-0.3s0.18-0.11,0.3-0.11        l0.79,0c0.12,0,0.22,0.04,0.3,0.12c0.08,0.08,0.12,0.18,0.12,0.3l-0.05,11.95c0,0.12-0.04,0.22-0.12,0.3        c-0.08,0.08-0.18,0.12-0.3,0.12l-0.79,0C148.62,383.77,148.52,383.73,148.44,383.65z"/>
						<path class="st2" d="M158.75,383.52c-0.72-0.31-1.28-0.73-1.65-1.24s-0.58-1.06-0.6-1.65c0-0.1,0.04-0.18,0.11-0.25        c0.07-0.07,0.16-0.11,0.27-0.11l0.88,0c0.22,0,0.37,0.12,0.45,0.36c0.11,0.5,0.41,0.94,0.92,1.31        c0.51,0.37,1.24,0.55,2.18,0.56c1.02,0,1.78-0.17,2.29-0.53c0.51-0.36,0.76-0.85,0.76-1.49c0-0.41-0.12-0.75-0.37-1.01        c-0.24-0.26-0.61-0.5-1.09-0.7s-1.21-0.45-2.18-0.74c-0.92-0.27-1.66-0.55-2.2-0.85c-0.54-0.3-0.95-0.67-1.23-1.11        c-0.27-0.44-0.41-0.99-0.41-1.67c0-0.65,0.18-1.23,0.53-1.73c0.35-0.51,0.86-0.91,1.52-1.2s1.44-0.44,2.34-0.43        c0.94,0,1.74,0.17,2.4,0.5c0.66,0.33,1.17,0.75,1.52,1.25c0.35,0.5,0.53,1,0.55,1.5c0,0.11-0.04,0.2-0.11,0.27        c-0.07,0.07-0.16,0.11-0.27,0.11l-0.9,0c-0.1,0-0.19-0.03-0.27-0.09c-0.08-0.06-0.14-0.15-0.18-0.27        c-0.07-0.52-0.36-0.94-0.86-1.28s-1.13-0.51-1.89-0.51c-0.82,0-1.46,0.15-1.95,0.47c-0.48,0.32-0.72,0.79-0.73,1.41        c0,0.42,0.11,0.76,0.33,1.03c0.22,0.26,0.56,0.5,1.02,0.71c0.46,0.21,1.13,0.44,2.02,0.71c1.02,0.29,1.82,0.58,2.4,0.87        c0.58,0.29,1.02,0.65,1.3,1.08c0.29,0.43,0.43,0.98,0.43,1.65c0,1.13-0.44,2.01-1.3,2.63c-0.86,0.63-2.02,0.94-3.49,0.93        C160.33,383.99,159.48,383.83,158.75,383.52z"/>
						<path class="st2" d="M168.25,372.61c-0.08-0.08-0.12-0.18-0.12-0.3l0-0.94c0-0.12,0.04-0.22,0.12-0.31        c0.08-0.08,0.18-0.12,0.3-0.12l1.06,0c0.12,0,0.22,0.04,0.3,0.13s0.12,0.19,0.12,0.31l0,0.94c0,0.12-0.04,0.22-0.13,0.3        c-0.08,0.08-0.19,0.12-0.31,0.12l-1.06,0C168.43,372.72,168.33,372.68,168.25,372.61z M168.35,383.73        c-0.08-0.08-0.12-0.18-0.12-0.3l0.04-8.53c0-0.12,0.04-0.22,0.12-0.3c0.08-0.08,0.18-0.12,0.3-0.12l0.79,0        c0.12,0,0.22,0.04,0.3,0.12c0.08,0.08,0.12,0.18,0.12,0.3l-0.04,8.53c0,0.12-0.04,0.22-0.12,0.3        c-0.08,0.08-0.18,0.12-0.3,0.12l-0.79,0C168.52,383.85,168.42,383.81,168.35,383.73z"/>
						<path class="st2" d="M172.05,383.75c-0.08-0.08-0.12-0.18-0.12-0.3l0-0.59c0-0.1,0.03-0.2,0.08-0.3        c0.05-0.1,0.11-0.19,0.17-0.28l5.05-6.37l-4.7-0.02c-0.12,0-0.22-0.04-0.29-0.12c-0.07-0.08-0.11-0.18-0.11-0.3l0-0.56        c0-0.12,0.04-0.22,0.11-0.3s0.17-0.12,0.29-0.12l6.37,0.03c0.12,0,0.22,0.04,0.29,0.12c0.08,0.08,0.12,0.18,0.12,0.3l0,0.63        c0,0.13-0.09,0.32-0.26,0.56l-4.97,6.35l5.15,0.02c0.13,0,0.23,0.04,0.31,0.11c0.07,0.07,0.11,0.18,0.11,0.31l0,0.56        c0,0.12-0.04,0.22-0.12,0.3c-0.08,0.08-0.18,0.12-0.3,0.12l-6.89-0.03C172.23,383.86,172.13,383.82,172.05,383.75z"/>
						<path class="st2" d="M182.34,382.94c-0.73-0.76-1.12-1.81-1.19-3.13l-0.02-0.61l0.02-0.59c0.08-1.29,0.48-2.33,1.22-3.09        c0.74-0.77,1.71-1.15,2.94-1.14c1.32,0.01,2.34,0.43,3.06,1.27c0.72,0.84,1.08,1.98,1.08,3.42l0,0.32        c0,0.12-0.04,0.22-0.12,0.3c-0.08,0.08-0.18,0.12-0.3,0.12l-6.25-0.03v0.16c0.03,0.78,0.27,1.45,0.71,2s1.03,0.83,1.76,0.83        c0.56,0,1.02-0.11,1.38-0.33c0.36-0.22,0.62-0.45,0.8-0.69c0.11-0.14,0.19-0.23,0.25-0.26c0.06-0.03,0.16-0.04,0.3-0.04        l0.79,0c0.11,0,0.2,0.03,0.28,0.09c0.08,0.06,0.12,0.14,0.12,0.24c0,0.26-0.16,0.58-0.49,0.95c-0.33,0.37-0.79,0.69-1.38,0.96        s-1.28,0.4-2.04,0.4C184.05,384.09,183.07,383.71,182.34,382.94z M187.82,378.58v-0.05c0-0.84-0.22-1.52-0.68-2.05        c-0.45-0.53-1.06-0.8-1.83-0.8c-0.78,0-1.39,0.26-1.84,0.79c-0.45,0.53-0.67,1.21-0.67,2.05v0.05L187.82,378.58z"/>
					</g>
				</g>
			</g>
		</g>
	</g>
	<g id="MTEXT_9_">
		<g>
			<g>
				<path class="st2" d="M82.5,62.7v-2.38h4.57v12.71h-2.66V62.7H82.5z"/>
				<path class="st2" d="M88.92,70.48v-2.11l6.08-8.19h2.72v8.1h1.66v2.2h-1.66v2.56h-2.56v-2.56H88.92z M95.37,63.15l-3.85,5.13      h3.85V63.15z"/>
				<path class="st2" d="M100.8,66.57c0-4.3,1.62-6.44,4.86-6.44c1.72,0,2.95,0.58,3.71,1.73c0.76,1.15,1.13,2.72,1.13,4.72      c0,2-0.38,3.58-1.13,4.73s-1.99,1.73-3.71,1.73C102.42,73.03,100.8,70.88,100.8,66.57z M108,66.57c0-1.3-0.16-2.29-0.48-3      c-0.32-0.7-0.94-1.05-1.86-1.05c-0.94,0-1.56,0.35-1.88,1.05c-0.32,0.7-0.48,1.7-0.48,3c0,1.31,0.16,2.31,0.48,3.02      c0.32,0.7,0.95,1.05,1.88,1.05c0.92,0,1.54-0.35,1.86-1.05C107.84,68.89,108,67.88,108,66.57z"/>
				<path class="st2" d="M119.77,61.66c-0.3,0.26-0.45,0.73-0.45,1.39v0.02h2.02v2.14h-2.02v7.83h-2.54V65.2h-1.28v-2.14h1.28v-0.23      c0-1.19,0.34-2.1,1.02-2.75c0.68-0.64,1.68-0.96,3.01-0.96c0.23,0,0.4,0.01,0.52,0.02v2.2      C120.6,61.29,120.07,61.39,119.77,61.66z"/>
				<path class="st2" d="M128.18,70.86v2.18h-1.33c-1.12,0-1.97-0.27-2.57-0.81s-0.89-1.44-0.89-2.7V65.2h-1.39v-2.14h1.39V60.6      h2.54v2.47h2.23v2.14h-2.23v4.36c0,0.48,0.1,0.82,0.29,1.01c0.19,0.19,0.52,0.29,0.97,0.29H128.18z"/>
				<path class="st2" d="M132.79,61.78c0-0.33-0.08-0.59-0.24-0.78c-0.16-0.19-0.4-0.28-0.74-0.28c-0.69,0-1.06,0.47-1.1,1.42h-1.44      c0.04-0.87,0.31-1.54,0.8-1.99c0.49-0.45,1.11-0.68,1.86-0.68c0.76,0,1.35,0.2,1.76,0.59c0.41,0.4,0.61,0.92,0.61,1.58      c0,0.52-0.15,1.04-0.46,1.56c-0.3,0.52-0.69,1-1.16,1.44c-0.47,0.44-0.96,0.81-1.48,1.13h3.24v1.21h-5.22v-1.1      C131.61,64.23,132.79,62.87,132.79,61.78z"/>
				<path class="st2" d="M142.08,75.21h-2.54V58.49h2.54V75.21z"/>
				<path class="st2" d="M147.04,62.7v-2.38h4.57v12.71h-2.66V62.7H147.04z"/>
				<path class="st2" d="M160.41,60.29c0.62,0.3,1.09,0.71,1.4,1.24c0.32,0.53,0.48,1.12,0.48,1.76c0,0.82-0.22,1.48-0.67,2.01      c-0.44,0.52-1.03,0.84-1.76,0.96v0.09c1.78,0.53,2.66,1.57,2.66,3.13c0,1.09-0.37,1.98-1.1,2.65c-0.73,0.68-1.76,1.02-3.1,1.02      c-1.42,0-2.54-0.35-3.38-1.05c-0.84-0.7-1.31-1.76-1.4-3.18h2.48c0.06,0.65,0.27,1.16,0.64,1.54c0.37,0.38,0.88,0.57,1.56,0.57      c0.58,0,1.03-0.16,1.35-0.48c0.32-0.32,0.49-0.73,0.49-1.25c0-0.61-0.23-1.08-0.7-1.4c-0.47-0.32-1.16-0.49-2.07-0.49h-0.52      v-2.07h0.52c1.68,0.02,2.52-0.56,2.52-1.75c0-0.52-0.15-0.92-0.45-1.21s-0.71-0.44-1.22-0.44c-0.54,0-0.98,0.17-1.33,0.51      c-0.35,0.34-0.55,0.82-0.59,1.43h-2.48c0.07-1.3,0.49-2.29,1.26-3c0.77-0.7,1.84-1.05,3.2-1.05      C159.05,59.84,159.79,59.99,160.41,60.29z"/>
				<path class="st2" d="M184.19,64.04c0.7,0.75,1.05,1.82,1.05,3.2v5.8h-2.52v-5.51c0-0.77-0.2-1.36-0.58-1.77      c-0.39-0.41-0.93-0.62-1.61-0.62c-0.71,0-1.27,0.22-1.69,0.67s-0.63,1.09-0.63,1.94v5.29h-2.52v-5.51c0-0.77-0.2-1.36-0.58-1.77      c-0.39-0.41-0.93-0.62-1.61-0.62c-0.71,0-1.27,0.22-1.69,0.67s-0.63,1.09-0.63,1.94v5.29h-2.54v-9.97h2.54v1.89      c0.26-0.65,0.68-1.15,1.25-1.5c0.57-0.35,1.23-0.53,1.99-0.53c0.8,0,1.5,0.19,2.1,0.58c0.59,0.38,1.04,0.94,1.34,1.66      c0.31-0.68,0.78-1.23,1.39-1.63c0.62-0.4,1.31-0.6,2.08-0.6C182.53,62.92,183.48,63.29,184.19,64.04z"/>
				<path class="st2" d="M190.26,61.78c0-0.33-0.08-0.59-0.24-0.78s-0.4-0.28-0.74-0.28c-0.69,0-1.06,0.47-1.1,1.42h-1.44      c0.04-0.87,0.31-1.54,0.8-1.99c0.49-0.45,1.11-0.68,1.86-0.68c0.76,0,1.35,0.2,1.76,0.59c0.41,0.4,0.61,0.92,0.61,1.58      c0,0.52-0.15,1.04-0.46,1.56c-0.3,0.52-0.69,1-1.16,1.44c-0.47,0.44-0.96,0.81-1.48,1.13h3.24v1.21h-5.22v-1.1      C189.08,64.23,190.26,62.87,190.26,61.78z"/>
			</g>
		</g>
	</g>
	<g>
		<g id="POLYLINE_191_">
			<line class="st3" x1="633.8" y1="681.62" x2="446.59" y2="681.62"/>
		</g>
		<g id="LINE_2_">
			<line class="st3" x1="324.93" y1="681.62" x2="101.26" y2="681.62"/>
		</g>
		<g id="POLYLINE_190_">
			<polyline class="st3" points="107.89,688.25 101.26,681.62 107.89,674.99    "/>
		</g>
		<g id="POLYLINE_189_">
			<polyline class="st3" points="627.17,674.99 633.8,681.62 627.17,688.25    "/>
		</g>
		<g id="MTEXT_7_">
			<g>
				<g>
					<path class="st2" d="M337.26,687.83c-0.07-0.08-0.11-0.18-0.11-0.3v-10.15l-3.02,2.32c-0.08,0.07-0.17,0.11-0.27,0.11       c-0.11,0-0.21-0.06-0.3-0.18l-0.43-0.56c-0.06-0.08-0.09-0.17-0.09-0.25c0-0.13,0.06-0.24,0.18-0.32l3.91-3.02       c0.13-0.08,0.29-0.13,0.47-0.13h0.85c0.12,0,0.22,0.04,0.3,0.12c0.08,0.08,0.12,0.18,0.12,0.3v11.77c0,0.12-0.04,0.22-0.12,0.3       s-0.18,0.12-0.3,0.12h-0.88C337.43,687.95,337.33,687.91,337.26,687.83z"/>
					<path class="st2" d="M344.91,687.83c-0.07-0.08-0.11-0.18-0.11-0.3v-10.15l-3.02,2.32c-0.08,0.07-0.17,0.11-0.27,0.11       c-0.11,0-0.21-0.06-0.31-0.18l-0.43-0.56c-0.06-0.08-0.09-0.17-0.09-0.25c0-0.13,0.06-0.24,0.18-0.32l3.91-3.02       c0.13-0.08,0.29-0.13,0.47-0.13h0.85c0.12,0,0.22,0.04,0.3,0.12c0.08,0.08,0.12,0.18,0.12,0.3v11.77c0,0.12-0.04,0.22-0.12,0.3       s-0.18,0.12-0.3,0.12h-0.88C345.08,687.95,344.98,687.91,344.91,687.83z"/>
					<path class="st2" d="M348.98,678.49c-0.05-0.07-0.07-0.16-0.05-0.28l0.4-2.52c0.05-0.35,0.22-0.52,0.5-0.52h1.15       c0.08,0,0.15,0.03,0.21,0.09c0.05,0.06,0.08,0.13,0.08,0.22c0,0.12-0.02,0.22-0.05,0.29l-0.94,2.43       c-0.06,0.13-0.13,0.23-0.2,0.3c-0.07,0.07-0.18,0.1-0.32,0.1h-0.56C349.1,678.59,349.03,678.56,348.98,678.49z"/>
					<path class="st2" d="M361.07,687.83c-0.07-0.08-0.11-0.18-0.11-0.3v-10.15l-3.02,2.32c-0.08,0.07-0.17,0.11-0.27,0.11       c-0.11,0-0.21-0.06-0.31-0.18l-0.43-0.56c-0.06-0.08-0.09-0.17-0.09-0.25c0-0.13,0.06-0.24,0.18-0.32l3.91-3.02       c0.13-0.08,0.29-0.13,0.47-0.13h0.85c0.12,0,0.22,0.04,0.3,0.12c0.08,0.08,0.12,0.18,0.12,0.3v11.77c0,0.12-0.04,0.22-0.12,0.3       s-0.18,0.12-0.3,0.12h-0.88C361.24,687.95,361.14,687.91,361.07,687.83z"/>
					<path class="st2" d="M366.34,686.77c-0.71-0.91-1.1-2.09-1.14-3.56l-0.02-1.55l0.02-1.6c0.04-1.45,0.42-2.63,1.14-3.54       s1.86-1.36,3.39-1.36c1.55,0,2.69,0.45,3.41,1.36c0.72,0.91,1.11,2.08,1.14,3.54c0.01,0.34,0.02,0.87,0.02,1.6       c0,0.71-0.01,1.22-0.02,1.55c-0.05,1.46-0.43,2.65-1.14,3.56c-0.71,0.91-1.85,1.36-3.41,1.36       C368.18,688.13,367.05,687.68,366.34,686.77z M371.82,685.72c0.47-0.61,0.71-1.48,0.74-2.59c0.01-0.35,0.02-0.85,0.02-1.49       c0-0.66-0.01-1.15-0.02-1.48c-0.02-1.1-0.27-1.96-0.75-2.58c-0.47-0.62-1.17-0.93-2.08-0.93s-1.6,0.31-2.07,0.93       s-0.71,1.48-0.74,2.58l-0.02,1.48l0.02,1.49c0.02,1.12,0.27,1.98,0.74,2.59c0.47,0.61,1.16,0.92,2.07,0.92       C370.65,686.63,371.35,686.33,371.82,685.72z"/>
					<path class="st2" d="M376.53,678.48c-0.05-0.07-0.07-0.16-0.04-0.27l0.4-2.52c0.05-0.35,0.22-0.52,0.5-0.52h1.15       c0.08,0,0.15,0.03,0.21,0.09c0.05,0.06,0.08,0.13,0.08,0.22c0,0.12-0.02,0.22-0.05,0.29l-0.94,2.43       c-0.06,0.13-0.13,0.23-0.2,0.3c-0.07,0.07-0.18,0.1-0.32,0.1h-0.56C376.65,678.59,376.58,678.55,376.53,678.48z M379.35,678.48       c-0.05-0.07-0.07-0.16-0.04-0.27l0.4-2.52c0.05-0.35,0.22-0.52,0.5-0.52h1.15c0.08,0,0.15,0.03,0.21,0.09       c0.05,0.06,0.08,0.13,0.08,0.22c0,0.12-0.02,0.22-0.05,0.29l-0.94,2.43c-0.06,0.13-0.13,0.23-0.2,0.3       c-0.07,0.07-0.18,0.1-0.32,0.1h-0.56C379.48,678.59,379.41,678.55,379.35,678.48z"/>
					<path class="st2" d="M388.23,691.58c-0.07-0.08-0.11-0.18-0.11-0.3v-19.04c0-0.12,0.04-0.22,0.11-0.3s0.17-0.12,0.29-0.12h0.67       c0.12,0,0.22,0.04,0.3,0.12s0.12,0.18,0.12,0.3v19.04c0,0.12-0.04,0.22-0.12,0.3s-0.18,0.12-0.3,0.12h-0.67       C388.4,691.69,388.31,691.65,388.23,691.58z"/>
					<path class="st2" d="M398.26,687.67c-0.68-0.31-1.2-0.7-1.56-1.2c-0.35-0.49-0.54-1-0.57-1.53c0-0.11,0.04-0.2,0.11-0.26       c0.07-0.07,0.16-0.1,0.27-0.1h0.81c0.13,0,0.24,0.03,0.32,0.08c0.08,0.05,0.15,0.16,0.2,0.32c0.16,0.61,0.5,1.04,1.02,1.3       c0.52,0.25,1.14,0.38,1.84,0.38c0.86,0,1.55-0.21,2.06-0.62c0.51-0.41,0.76-1,0.76-1.77c0-1.46-0.89-2.2-2.68-2.2h-1.69       c-0.12,0-0.22-0.04-0.3-0.12s-0.12-0.18-0.12-0.3v-0.47c0-0.18,0.07-0.34,0.2-0.47l3.51-3.89h-5.33c-0.12,0-0.22-0.04-0.3-0.11       c-0.08-0.07-0.12-0.17-0.12-0.29v-0.65c0-0.13,0.04-0.24,0.12-0.32c0.08-0.08,0.18-0.12,0.3-0.12h7.13       c0.13,0,0.24,0.04,0.31,0.12c0.08,0.08,0.12,0.18,0.12,0.32v0.59c0,0.13-0.06,0.27-0.18,0.41l-3.51,3.94h0.29       c1.22,0.04,2.19,0.35,2.91,0.95c0.71,0.6,1.07,1.48,1.07,2.63c0,0.79-0.2,1.47-0.58,2.04s-0.93,1.01-1.63,1.31       c-0.7,0.31-1.48,0.46-2.36,0.46C399.75,688.13,398.94,687.98,398.26,687.67z"/>
					<path class="st2" d="M407.47,687.83c-0.08-0.08-0.12-0.18-0.12-0.3v-1.24c0-0.12,0.04-0.22,0.12-0.31s0.18-0.13,0.3-0.13h1.24       c0.12,0,0.22,0.04,0.3,0.13s0.12,0.19,0.12,0.31v1.24c0,0.12-0.04,0.22-0.12,0.3s-0.18,0.12-0.3,0.12h-1.24       C407.64,687.95,407.54,687.91,407.47,687.83z"/>
					<path class="st2" d="M413.44,687.54c-0.7-0.39-1.24-0.92-1.6-1.58c-0.37-0.66-0.55-1.38-0.55-2.16c0-1.03,0.41-2.14,1.24-3.31       l3.44-4.79c0.01-0.01,0.04-0.05,0.1-0.13s0.12-0.13,0.21-0.17c0.08-0.04,0.18-0.06,0.29-0.06h0.88c0.11,0,0.19,0.04,0.26,0.12       c0.07,0.08,0.1,0.17,0.1,0.28c0,0.06-0.03,0.14-0.09,0.23l-2.63,3.67c0.31-0.07,0.66-0.11,1.04-0.11c0.88,0,1.65,0.2,2.31,0.58       c0.67,0.39,1.18,0.91,1.55,1.55c0.37,0.64,0.55,1.35,0.55,2.12c0,0.77-0.18,1.49-0.55,2.15s-0.9,1.2-1.59,1.59       c-0.7,0.4-1.52,0.59-2.47,0.59C414.98,688.13,414.14,687.93,413.44,687.54z M417.38,686.31c0.44-0.22,0.8-0.54,1.06-0.96       c0.26-0.43,0.4-0.94,0.4-1.54c0-0.59-0.13-1.1-0.4-1.52c-0.27-0.43-0.63-0.75-1.07-0.97c-0.44-0.22-0.92-0.33-1.44-0.33       s-1,0.11-1.44,0.33c-0.44,0.22-0.8,0.55-1.06,0.97s-0.4,0.93-0.4,1.52c0,0.6,0.13,1.11,0.4,1.54s0.62,0.75,1.06,0.96       c0.44,0.22,0.92,0.32,1.44,0.32C416.45,686.63,416.93,686.53,417.38,686.31z"/>
					<path class="st2" d="M427.1,687.83c-0.08-0.08-0.12-0.18-0.12-0.3V679c0-0.12,0.04-0.22,0.12-0.3s0.18-0.12,0.3-0.12h0.76       c0.12,0,0.21,0.04,0.29,0.12s0.11,0.18,0.11,0.3v0.61c0.65-0.8,1.52-1.21,2.63-1.21c1.32,0,2.26,0.55,2.81,1.66       c0.29-0.5,0.7-0.91,1.23-1.21c0.53-0.3,1.13-0.45,1.79-0.45c0.98,0,1.79,0.34,2.41,1.01c0.62,0.67,0.94,1.64,0.94,2.92v5.2       c0,0.12-0.04,0.22-0.12,0.3s-0.18,0.12-0.3,0.12h-0.77c-0.12,0-0.22-0.04-0.3-0.12s-0.12-0.18-0.12-0.3v-5.04       c0-0.96-0.2-1.65-0.59-2.06c-0.4-0.41-0.92-0.62-1.57-0.62c-0.58,0-1.07,0.21-1.48,0.64s-0.62,1.11-0.62,2.04v5.04       c0,0.12-0.04,0.22-0.12,0.3s-0.18,0.12-0.3,0.12h-0.79c-0.12,0-0.22-0.04-0.3-0.12s-0.12-0.18-0.12-0.3v-5.04       c0-0.95-0.21-1.63-0.62-2.05c-0.41-0.42-0.93-0.63-1.54-0.63c-0.58,0-1.07,0.21-1.49,0.63s-0.62,1.1-0.62,2.03v5.06       c0,0.12-0.04,0.22-0.12,0.3s-0.18,0.12-0.3,0.12h-0.79C427.28,687.95,427.18,687.91,427.1,687.83z"/>
				</g>
			</g>
		</g>
	</g>
</g>
<g id="N-TEXT">
</g>
<g id="AG-DIAGRAM">
	<g id="POLYLINE_183_">
		<g>
			<g>
				<polyline class="st4" points="565.75,483.23 565.75,485.73 563.25,485.73     "/>
				<line class="st16" x1="556.07" y1="485.73" x2="350.38" y2="485.73"/>
				<polyline class="st4" points="346.79,485.73 344.29,485.73 344.29,483.23     "/>
				<line class="st16" x1="344.29" y1="476.05" x2="344.29" y2="270.36"/>
				<polyline class="st4" points="344.29,266.77 344.29,264.27 346.79,264.27     "/>
				<line class="st16" x1="353.97" y1="264.27" x2="559.66" y2="264.27"/>
				<polyline class="st4" points="563.25,264.27 565.75,264.27 565.75,266.77     "/>
				<line class="st16" x1="565.75" y1="273.95" x2="565.75" y2="479.64"/>
			</g>
		</g>
	</g>
	<g id="POLYLINE_182_">
		<g>
			<g>
				<path class="st4" d="M318.3,508.75c0-0.54,0-1.08,0-1.62c0-0.29,0-0.59,0-0.88c0.83,0,1.67,0.02,2.5,0.03"/>
				<path class="st5" d="M327.66,506.59c3.78,0.26,7.54,0.67,11.29,1.25c6.72,1.04,13.37,2.58,19.85,4.63      c6.74,2.13,13.3,4.78,19.64,7.92c6.29,3.11,12.33,6.74,18.05,10.81c5.52,3.92,10.72,8.26,15.6,12.95      c4.78,4.59,9.21,9.56,13.24,14.82c4.27,5.56,8.12,11.44,11.47,17.6c3.4,6.26,6.32,12.76,8.71,19.47      c2.25,6.29,4.02,12.77,5.29,19.33c1.28,6.58,2.07,13.26,2.37,19.96"/>
				<path class="st4" d="M453.27,638.75c0.01,0.83,0.02,1.67,0.03,2.5c-0.83,0-1.67,0-2.5,0"/>
				<path class="st6" d="M443.95,641.25c-1.37,0-2.74,0-4.11,0c-10.77,0-21.54,0-32.3,0c-13.02,0-26.04,0-39.06,0      c-11.24,0-22.47,0-33.71,0c-3.66,0-7.32,0-10.98,0c-1.16,0-2.32,0-3.49,0c-0.48,0-1.32,0.17-1.78,0      c-0.33-0.12-0.11,0.1-0.22-0.26c-0.16-0.5,0-1.33,0-1.85c0-2.82,0-5.65,0-8.47c0-10.22,0-20.44,0-30.66c0-12.96,0-25.92,0-38.88      c0-11.62,0-23.24,0-34.86c0-4.7,0-9.4,0-14.1"/>
			</g>
		</g>
	</g>
</g>
<g id="AG-ANIMALS">
	<g id="POLYLINE_181_">
		<path class="st7" d="M277.45,349.84c2.36,0.08,4.78,0.04,6.98,1.01"/>
	</g>
	<g id="POLYLINE_180_">
		<path class="st7" d="M277.37,350.16c2.06,0.18,3.39,0.65,5.13,1.73"/>
	</g>
	<g id="POLYLINE_179_">
		<path class="st7" d="M276.54,350.63c0.7,0.29,1.6,0.97,1.65,1.8"/>
	</g>
	<g id="POLYLINE_178_">
		<path class="st7" d="M268.28,352.35c0.81-2.17,2.54-2.78,4.7-3.06"/>
	</g>
	<g id="POLYLINE_177_">
		<path class="st7" d="M265.25,348.91c2.47-1.05,4.93-0.4,7.51-0.24"/>
	</g>
	<g id="POLYLINE_176_">
		<path class="st7" d="M264.21,347.4c2.87-0.86,5.38-0.2,8.21,0.61"/>
	</g>
	<g id="POLYLINE_175_">
		<path class="st7" d="M271.16,339.88c-0.14-0.78-0.11-1.4-0.15-2.19c-0.02-0.44-0.57-2.23,0.28-2.1c0.24,0.04,0.59,0.34,0.78,0.46    c0.5,0.31,1,0.62,1.51,0.9c0.39,0.22,0.79,0.49,1.24,0.52c1.01,0.06,1.78-0.19,2.78,0.14c0.93,0.31,1.9,0.4,2.73,0.93    c0.78,0.5,1.05,1.19,2.03,1.2c1.3,0.01,2.6-0.13,3.9-0.22c0.42-0.03,0.78-0.18,0.6,0.21c-0.08,0.17-0.4,0.36-0.54,0.51    c-0.36,0.36-0.69,0.75-1.01,1.14c-0.53,0.65-1.12,1.32-1.53,2.05c-0.35,0.62-0.22,1.09-0.23,1.77c-0.02,0.66-0.44,1.01-0.96,1.37    c-0.85,0.58-0.84,0.75-1.22,1.64c-0.31,0.71-0.88,0.69-1.59,0.83c-0.96,0.19-1.39,0.42-2.03,1.11c-0.58,0.63-1.56,0.83-2.39,0.93    c-1.38,0.16-2.88-1.17-3.31-2.43c-0.18-0.54,0-1.1-0.22-1.62c-0.19-0.43-0.58-0.78-0.85-1.15c-0.57-0.78-1.2-1.59-1.7-2.41    c-0.26-0.43-0.44-0.94-0.28-1.44c0.28-0.91,1.27-1.11,1.89-1.68C271.06,340.21,271.2,340.13,271.16,339.88z"/>
	</g>
	<g id="POLYLINE_174_">
		<path class="st7" d="M227.07,372.32c-0.57,1.33-1.35,2.7-1.73,4.09c-0.11,0.4-0.15,0.85-0.03,1.25c0.19,0.64,0.76,1.02,1.42,0.86    c0.51-0.12,0.88-0.57,1.21-0.94"/>
	</g>
	<g id="POLYLINE_173_">
		<path class="st7" d="M242.37,362.1c3.3,0.65,6.69,0.27,9.95-0.46c1.71-0.38,3.45-0.61,5.17-0.87c0.72-0.11,1.5-0.26,2.23-0.13    c1.01,0.17,1.81,1.02,2.42,1.78c0.81,1,1.38,2.18,2.04,3.28c0.92,1.55,1.88,3.06,2.79,4.61c1.8,3.08,3.57,6.23,5.05,9.48    c0.43,0.95,0.8,2.38,1.97,2.7c2.32,0.64,2.3-2.43,1.73-3.81c-1.3-3.15-3.07-6.06-4.28-9.26c-0.58-1.53-1.55-3.55-1.08-5.25    c0.33-1.17,1.41-1.98,2.37-2.63c0.83-0.56,1.5-0.96,2.41-0.41c2.77,1.67,5.08,4.1,7.77,5.91c2.32,1.55,5.05,2.73,7,4.77    c1.09,1.14,2.28,3.51,4.09,3.7c0.78,0.09,0.86-0.61,0.76-1.23c-0.09-0.61-0.37-1.19-0.66-1.74c-0.8-1.48-1.75-2.97-2.73-4.34    c-1.65-2.31-4.11-3.89-6.16-5.8c-1.16-1.08-2.63-2.37-3.02-3.99c-0.24-1-0.05-2.07-0.09-3.09c-0.07-1.58-0.2-3.22-0.57-4.76    c-0.15-0.63-0.35-1.24-0.65-1.82"/>
	</g>
	<g id="POLYLINE_172_">
		<path class="st7" d="M233.9,383.03c0.6,1.25,1.53,2.6,3.09,2.57c0.9-0.01,1.24-0.66,1.12-1.49c-0.17-1.14-1.01-2.1-1.52-3.08    c-0.33-0.63-0.55-1.28-0.69-1.98c-0.26-1.32-0.45-2.86-0.26-4.2c0.12-0.84,0.65-1.52,1.1-2.21c2.16-3.29,4.8-6.6,5.62-10.54"/>
	</g>
	<g id="POLYLINE_171_">
		<path class="st7" d="M239.23,358.77c-0.68,2.07-1.71,4-2.75,5.9c-1.13,2.07-2.26,4.04-3.68,5.92c-1.26,1.69-1.75,3.69-1.36,5.78    c0.41,2.18,1.51,4.26,2.37,6.27"/>
	</g>
	<g id="POLYLINE_170_">
		<path class="st7" d="M268.93,342.7c-1.62-0.73-3.4-1.17-5.1-1.66c-2.15-0.61-4.3-1.2-6.47-1.73c-3.74-0.92-7.53-1.6-11.4-1.37    c-3.67,0.22-7.38,1.02-10.79,2.42c-3.42,1.4-6.27,3.11-8.82,5.8c-1.43,1.51-1.91,3.12-1.86,5.18c0.1,3.87,1.44,7.55,2.23,11.31    c0.31,1.46,0.67,2.98,0.67,4.48c-0.01,1.56-0.35,3.09-0.33,4.66c0.05,3.6,1.12,7.35,2.46,10.67c0.43,1.08,1.27,2.95,2.61,3.1    c1.13,0.13,1.8-0.76,1.84-1.81c0.01-0.37-0.05-0.75-0.15-1.11"/>
	</g>
</g>
<g id="AG-FURNITURE">
</g>
<g id="AG-PEOPLE">
	<g id="POLYLINE_127_">
		<path class="st7" d="M198.61,242.49c-6.7,3.53-12.42,8.23-18.32,12.93c-2.49,1.98-4.98,3.97-7.68,5.66    c-2.99,1.88-6.24,3.18-9.66,4.03c-3.31,0.83-6.87,1.38-10.26,0.7c-2.85-0.56-5.49-1.97-7.85-3.62c-2.54-1.77-4.73-3.92-6.31-6.6    c-1.68-2.86-2.88-6.03-3.87-9.19c-2.15-6.81-2.54-13.91-2.33-21.01c0.2-6.72,0.51-13.9,2.72-20.31c0.57-1.66,1.29-3.26,1.83-4.93    c0.56-1.71,1.02-3.46,1.51-5.19c0.98-3.5,1.94-6.99,3.56-10.27c1.49-3,3.46-5.8,5.99-8.02c0.57-0.5,1.16-0.97,1.79-1.4    c0.32-0.22,0.83-0.69,1.24-0.76c0.68-0.12-0.07,0.56-0.29,0.89c-0.57,0.85-0.69,1.64,0.29,2.21c2.83,1.65,6.11,2.86,9.21,3.87    c1.46,0.48,2.95,0.87,4.47,1.1c0.69,0.1,1.48,0.23,2.18,0.08c1.47-0.32,2.28-2.06,3.26-3.03c0.57-0.56,1.25-0.95,1.96-1.31"/>
	</g>
	<g id="POLYLINE_126_">
		<path class="st7" d="M248.23,227.34c0.1,0.45,0.19,0.9,0.29,1.35c-8.89,1.14-17.78,2.27-26.68,3.41    c-0.29,0.04-0.46,0.12-0.61-0.03c-0.32-0.32-0.35-1.62-0.44-2.06c-0.61-2.85-1.22-5.7-1.82-8.55c-0.43-2-0.94-3.99-1.28-6.01    c-0.22-1.31-0.32-2.67-0.51-3.99c-0.47-3.22-0.94-6.43-1.41-9.65c-0.18-1.25-0.37-2.5-0.55-3.75c-0.02-0.16-0.2-0.69-0.12-0.85    c0.11-0.21,0.82-0.2,1.11-0.24"/>
	</g>
	<g id="POLYLINE_125_">
		<line class="st7" x1="243.1" y1="193.16" x2="216.12" y2="196.2"/>
	</g>
	<g id="POLYLINE_124_">
		<path class="st7" d="M248.75,224.26c-1.17-4.09-2.35-8.18-3.52-12.27c-0.3-1.03-0.44-1.77-0.48-2.84c-0.1-2.53-0.19-5.07-0.29-7.6    c-0.08-2-0.15-4-0.23-6"/>
	</g>
	<g id="POLYLINE_123_">
		<path class="st7" d="M198.61,242.49c-0.8,3.37-0.43,6.84,0.18,10.21c0.76,4.24,1.96,8.33,3.35,12.4    c1.65,4.84,3.17,9.73,4.71,14.61c0.54,1.7,1.75,3.88,0.97,5.68c-0.93,2.17-2.91,3.82-3.4,6.2c-0.3,1.45,0.22,2.7,1.3,3.68    c1.31,1.18,2.98,2,4.48,2.9c1.63,0.98,3.2,2.07,4.61,3.36c2.68,2.43,4.25,5.68,6.72,8.26c1.12,1.16,3.05,2.92,4.84,2.33    c1.21-0.4,1.42-1.64,1.36-2.77c-0.07-1.42-0.49-2.82-0.91-4.17c-0.75-2.46-1.55-4.9-2.32-7.35c-1.27-4.02-2.95-7.79-4.53-11.7    c-1.62-4.01-2.77-8.2-3.55-12.46c-0.88-4.78-1.21-9.65-1.67-14.49c-0.4-4.29-1-8.55-1.54-12.83c-0.55-4.39-0.84-8.73-1.98-13.02    c-0.65-2.44-1.32-5.2-3.35-6.88c-1.62-1.34-3.7-2.22-5.81-2.39c-3.03-0.24-6.26,1-9.14,1.73c-4.74,1.19-9.59,2.19-14.26,3.65    c-0.99,0.31-2.12,0.64-2.95,1.31"/>
	</g>
	<g id="POLYLINE_121_">
		<path class="st7" d="M167.5,263.68c0.92-5.87,1.86-11.74,2.58-17.64c0.34-2.79,0.55-5.62,1.02-8.39c0.27-1.6,0.78-3.21,1.68-4.57    c0.72-1.1,1.76-1.82,2.96-2.33"/>
	</g>
	<g id="POLYLINE_120_">
		<path class="st7" d="M174.74,259.66c6.79,2.46,13.99,4.24,21.2,4.85c2.03,0.17,4.06,0.24,6.09,0.25"/>
	</g>
	<g id="POLYLINE_119_">
		<path class="st7" d="M213.19,246.01c3.04,1.81,6.14,3.56,8.96,5.7c1.68,1.27,2.97,2.67,3.8,4.63c1.32,3.09,1.86,6.51,2.81,9.72    c1.02,3.45,2.3,6.78,3.68,10.11c1.38,3.32,2.54,6.59,3.29,10.11c0.74,3.48,1.41,6.98,2.36,10.42c0.9,3.23,1.95,6.54,3.69,9.42    c1.58,2.61,4,4.53,6.2,6.59c2.65,2.48,5.23,5.02,7.68,7.7c2.09,2.28,4.5,4.64,6.1,7.31c0.4,0.66,0.85,1.66,0.44,2.43    c-0.48,0.9-1.89,0.55-2.66,0.38c-2.95-0.67-6-2.05-8.55-3.66c-2.43-1.53-4.9-3.39-7.7-4.15c-3.84-1.05-8.82,0.38-11.73-3.1    c-0.79-0.94-1.15-1.99-1-3.21c0.32-2.63,1.02-5.17,0.39-7.83c-0.27-1.16-0.92-2.17-1.46-3.22c-0.75-1.47-1.47-2.96-2.16-4.46    c-1.64-3.54-3.23-7.1-5.02-10.57c-0.76-1.49-1.57-2.94-2.4-4.4"/>
	</g>
	<g id="POLYLINE_118_">
		<path class="st7" d="M143.31,182.22c-1.49,1.02-3.28,1.37-5.06,1.28"/>
	</g>
	<g id="POLYLINE_117_">
		<path class="st7" d="M138.25,183.49c1.27-0.6,2.59-1.15,3.68-2.05c1.19-0.99,2.15-2.27,2.97-3.57c0.88-1.42,1.62-2.98,2.12-4.57    c0.47-1.5,0.42-2.99,0.55-4.54c0.2-2.33,0.72-4.84,2.39-6.57c2.74-2.82,5.22-5.89,7.19-9.31c1.2-2.08,2.17-4.36,4.28-5.7    c1.62-1.03,3.46-1.92,5.18-2.78c1.05-0.52,2.07-0.78,3.22-0.97c1.39-0.23,2.7-0.83,4.1-0.99c0.88-0.1,1.74,0.08,2.58,0.35    c1.66,0.52,3.21,1.28,4.69,2.19c1.03,0.63,2.19,1,3.19,1.68c1.52,1.03,2.83,2.45,4.15,3.72c0.91,0.87,1.88,1.77,2.5,2.88    c0.85,1.52,0.48,3.05-0.39,4.5c-0.13,0.21-0.26,0.4-0.44,0.57"/>
	</g>
	<g id="POLYLINE_116_">
		<path class="st7" d="M190.21,158.32c-1.28-0.56-2.68-0.7-3.98-0.07c-0.69,0.34-1.25,0.88-1.98,1.15c-0.92,0.34-1.9,0.23-2.84,0.45    c-1.24,0.29-1.82,1.27-2.44,2.32c-0.71,1.21-1.62,2.14-2.92,2.7c-2.06,0.88-3.86-0.39-5.64-1.38"/>
	</g>
	<g id="POLYLINE_115_">
		<path class="st7" d="M168.66,172.44c-0.12,1.27,0.19,2.45,1,3.45c1.71,2.12,3.77,3.68,6.12,4.99c1.26,0.7,2.99,1.9,4.54,1.56    c1.02-0.23,1.56-1.24,2.01-2.09c0.58-1.1,0.97-2.37,1.66-3.4c0.21-0.31,0.67-1.18,1-1.35c0.64-0.34,1.47,0.6,2.21,0.5    c1.03-0.15,0.93-1.49,0.89-2.26c-0.07-1.44-0.42-2.88-0.41-4.32c0-0.41,0.08-0.76,0.31-1.11c0.35-0.55,0.9-0.95,1.26-1.5    c0.54-0.83,0.82-1.86,1.07-2.81c0.42-1.59,0.61-3.27,0.2-4.89c-0.08-0.3-0.18-0.6-0.32-0.88"/>
	</g>
	<g id="POLYLINE_114_">
		<path class="st7" d="M170.41,163.49c-1.06-0.92-2.69-1.4-3.51,0.02c-1.12,1.93-0.75,4.24,0.5,6.03c0.57,0.82,1.37,1.28,2.35,1.46"/>
	</g>
	<g id="POLYLINE_113_">
		<path class="st7" d="M170.41,163.49c0.8,0.81,1.27,1.87,1.23,3.01"/>
	</g>
	<g id="POLYLINE_112_">
		<path class="st7" d="M151.22,174.44c2.05-0.51,4.09-0.91,6.19-1.12c0.87-0.09,1.86-0.1,2.65-0.54c0.74-0.41,1.3-1.18,1.79-1.85    c1.23-1.68,1.99-3.59,3.04-5.37c0.57-0.97,1.32-1.76,2.25-2.4"/>
	</g>
	<g id="POLYLINE_64_">
		<path class="st7" d="M160.31,195.28c1,2.09,1.98,4.2,2.75,6.39c0.66,1.87,0.91,3.8,1.45,5.69c0.82,2.89,3.48,4.79,5.86,6.39    c1.66,1.12,3.39,1.88,5.19,2.73c0.69,0.33,1.33,0.75,1.9,1.26c1.32,1.21,2.11,2.95,2.36,4.71c0.24,1.73-0.27,3.15-1.52,4.35    c-1.41,1.36-3.16,2.49-4.85,3.48c-1.39,0.82-2.86,1.51-4.44,1.86c-3.76,0.82-7.59-0.03-10.86-1.99c-3.89-2.33-7.03-5.65-10.2-8.85    c-2.93-2.95-5.95-5.64-7.48-9.64c-1.47-3.83-1.43-8.05-1.15-12.08c0.08-1.21,0.19-2.43,0.29-3.64"/>
	</g>
	<g id="POLYLINE_60_">
		<path class="st7" d="M179.21,182.42c1.84,3.77,2.73,7.96,3.13,12.11c0.42,4.36,0.12,8.75-0.33,13.1    c-0.21,1.99-0.38,4.08-0.98,5.99"/>
	</g>
	<g id="POLYLINE_59_">
		<path class="st7" d="M179.5,225.23c1.65-1.96,3.42-3.81,5.28-5.57c1.41-1.33,2.86-2.8,4.52-3.82c1.27-0.78,2.78-0.92,4.18-1.36    c1.72-0.54,3.59-1.14,5.15-2.08c2.03-1.21,3.49-3.08,4.98-4.87"/>
	</g>
	<g id="POLYLINE_58_">
		<path class="st7" d="M175.95,216.68c3-1.82,6.39-3.49,8.9-5.98c2.35-2.33,3.96-5.62,5.25-8.63c0.68-1.58,1.05-3.26,1.66-4.86    c0.26-0.68,0.55-1.63,1.1-2.15c0.62-0.57,1.28-0.23,1.35,0.56c0.11,1.3-0.35,2.77-0.57,4.03c-0.14,0.8-0.49,1.88-0.3,2.7    c0.27,1.15,2.14,1.84,3.15,2.01c2,0.33,4.43,0.09,6.32-0.63c0.64-0.24,1.2-0.6,1.7-1.06c0.47-0.43,0.93-1.23,1.59-1.43    c0.9-0.27,0.95,0.57,0.71,1.19c-0.51,1.32-1.51,2.48-2.67,3.27c-0.29,0.19-0.59,0.36-0.9,0.51"/>
	</g>
	<g id="POLYLINE_51_">
		<line class="st7" x1="203.24" y1="206.21" x2="203.61" y2="207.53"/>
	</g>
	<g id="POLYLINE_50_">
		<line class="st7" x1="205.11" y1="204.91" x2="206.13" y2="207.98"/>
	</g>
	<g id="POLYLINE_49_">
		<line class="st7" x1="203.24" y1="206.21" x2="204.02" y2="209.05"/>
	</g>
	<g id="POLYLINE_48_">
		<path class="st7" d="M204.02,209.05c0.81,0.47,1.92-0.24,2.1-1.07"/>
	</g>
	<g id="POLYLINE_47_">
		<path class="st7" d="M180.54,224.02c-0.23,1.99,0.14,3.42,2.03,4.35"/>
	</g>
	<g id="POLYLINE_46_">
		<path class="st7" d="M179.53,183.1c1.43,1.21,2.84,2.49,4.39,3.55c1.01,0.69,2.24,1.18,3.11,2.05c0.89,0.89,1.34,2.15,1.96,3.22    c0.47,0.83,1.09,1.57,1.48,2.45c0.5,1.13,0.62,2.4,1.05,3.56"/>
	</g>
	<g id="POLYLINE_45_">
		<path class="st7" d="M205.32,201.86c1.07-1.7,1.24-3.87,0.45-5.71c-0.8-1.84-2.49-3.21-4.46-3.6c-1.98-0.39-4.07,0.25-5.51,1.67    c-1.43,1.42-2.08,3.49-1.72,5.47c0.36,1.98,1.71,3.69,3.54,4.5c0.23,0.1,0.46,0.19,0.7,0.26"/>
	</g>
	<g id="POLYLINE_44_">
		<path class="st7" d="M183.49,177.96c2.65,2.64,5.26,5.41,8.25,7.67c1.43,1.08,2.99,2,4.57,2.84c1.38,0.74,2.75,1.59,4.16,2.25    c1.52,0.71,3.33,0.57,4.42,1.97c1.37,1.75,1.69,3.68,2.36,5.74c0.11,0.34,0.72,1.29,0.22,1.56c-0.4,0.22-1.03-0.3-1.28-0.53"/>
	</g>
	<g id="POLYLINE_43_">
		<path class="st7" d="M222.26,227.49c-1.24-4.52-2.48-9.05-3.72-13.57c7.66-0.99,15.33-1.99,22.99-2.98    c1.1-0.14,2.19-0.28,3.29-0.43"/>
	</g>
	<g id="POLYLINE_42_">
		<path class="st7" d="M218.54,213.91c-0.16-2.81-0.32-5.62-0.48-8.44c-0.1-1.79-0.2-3.57-0.3-5.36c-0.02-0.38-0.25-1.48,0-1.7    c0.13-0.11,0.67-0.07,0.83-0.09c0.52-0.06,1.04-0.11,1.57-0.17c1.59-0.17,3.17-0.34,4.76-0.51c3.97-0.43,7.94-0.86,11.91-1.29    c2.48-0.27,4.95-0.53,7.43-0.8"/>
	</g>
	<g id="POLYLINE_41_">
		<line class="st7" x1="216.12" y1="196.2" x2="217.66" y2="198.43"/>
	</g>
	<g id="POLYLINE_40_">
		<line class="st7" x1="244.25" y1="195.56" x2="243.1" y2="193.16"/>
	</g>
	<g id="POLYLINE_39_">
		<path class="st7" d="M216.12,196.2c0.52,4.74,1.05,9.49,1.57,14.23c0.38,3.4,0.97,6.63,1.71,9.98c0.62,2.82,1.25,5.64,1.87,8.47    c0.06,0.26,0.16,1.69,0.41,1.85c0.14,0.09,0.8-0.1,0.96-0.12c5.25-0.67,10.49-1.34,15.74-2.01c2.75-0.35,5.49-0.7,8.24-1.05    c0.28-0.04,1.35,0.01,1.58-0.2c0.18-0.16,0.17-0.93,0.21-1.16c0.11-0.64,0.22-1.28,0.33-1.92c-8.46,1.03-16.91,2.06-25.37,3.09    c-0.23,0.03-0.94-0.01-1.13,0.14c-0.21,0.17-0.22,1.25-0.27,1.53c-0.1,0.57-0.2,1.15-0.3,1.72"/>
	</g>
</g>
<g id="AG-LAYOUT">
	<g id="POLYLINE_38_">
		
			<rect x="545.6" y="585.47" transform="matrix(0.7071 -0.7071 0.7071 0.7071 -248.7365 589.1893)" class="st7" width="82.5" height="18.75"/>
	</g>
	<g id="POLYLINE_37_">
		
			<rect x="520.41" y="524.66" transform="matrix(0.7071 -0.7071 0.7071 0.7071 -238.3022 563.9986)" class="st7" width="82.5" height="90"/>
	</g>
	<g id="POLYLINE_36_">
		<rect x="445.75" y="116.25" class="st7" width="180" height="82.5"/>
	</g>
	<g id="POLYLINE_35_">
		<path class="st7" d="M108.2,123.75c0.01-4.14,3.41-7.43,7.5-7.5c2.99-0.05,5.98,0,8.97,0c7.71,0,15.42,0,23.13,0    c10.78,0,21.56,0,32.35,0c12.12,0,24.23,0,36.35,0c11.8,0,23.59,0,35.39,0c9.8,0,19.6,0,29.4,0c6.12,0,12.25,0,18.37,0    c2.66,0,5.43-0.3,7.77,1.24c2.53,1.67,3.38,4.33,3.38,7.21c0,3.61,0,7.22,0,10.83c0,7,0,14.01,0,21.01c0,9.53,0,19.05,0,28.58    c0,11.23,0,22.46,0,33.7c0,12.11,0,24.21,0,36.32c0,12.15,0,24.29,0,36.44c0,11.35,0,22.71,0,34.06c0,9.73,0,19.46,0,29.19    c0,7.28,0,14.55,0,21.83c0,3.99,0,7.97,0,11.96c0,2.65-0.35,5.12-2.43,7.03c-2.22,2.04-4.89,1.97-7.68,1.97    c-5.66,0-11.32,0-16.98,0c-9.51,0-19.01,0-28.52,0c-11.67,0-23.34,0-35.01,0c-12.16,0-24.32,0-36.48,0c-10.97,0-21.94,0-32.91,0    c-8.1,0-16.2,0-24.3,0c-3.55,0-7.11,0.03-10.66,0c-3.68-0.04-6.92-2.59-7.53-6.28c-0.34-2.06-0.1-4.31-0.1-6.37    c0-5.46,0-10.93,0-16.39c0-8.4,0-16.81,0-25.21c0-10.51,0-21.02,0-31.53c0-11.79,0-23.57,0-35.36c0-12.23,0-24.46,0-36.69    c0-11.84,0-23.68,0-35.52c0-10.62,0-21.24,0-31.86c0-8.57,0-17.13,0-25.7c0-5.68,0-11.36,0-17.04    C108.2,127.69,108.2,125.72,108.2,123.75z"/>
	</g>
	<g id="POLYLINE_34_">
		<path class="st7" d="M217.94,126.69c-1.94,0-3.58,1.53-3.74,3.46c-0.08,0.98-0.01,2-0.01,2.98c0,2.68,0,5.36,0,8.04    c0,7.71,0,15.42,0,23.12c0,5.78,0,11.57,0,17.35c0,1.8,0.12,3.53,1.86,4.54c1.55,0.9,3.86,0.51,5.55,0.51c5.64,0,11.29,0,16.93,0    c7.86,0,15.71,0,23.57,0c7.29,0,14.58,0,21.87,0c4.06,0,8.11,0,12.17,0c1.67,0,3.22-0.57,3.96-2.2c0.31-0.69,0.34-1.4,0.34-2.14    c0-1.9,0-3.79,0-5.69c0-7.26,0-14.51,0-21.77c0-6.82,0-13.65,0-20.47c0-1.92,0.5-4.64-0.79-6.29c-1.14-1.45-2.74-1.44-4.4-1.44    c-4.73,0-9.46,0-14.19,0c-7.55,0-15.09,0-22.64,0c-7.67,0-15.34,0-23.01,0c-5.1,0-10.2,0-15.3,0    C219.38,126.69,218.66,126.69,217.94,126.69z"/>
	</g>
	<g id="POLYLINE_33_">
		<rect x="108.2" y="461.25" class="st7" width="90" height="135"/>
	</g>
	<g id="POLYLINE_32_">
		<rect x="318.3" y="91.88" class="st7" width="314.95" height="16.88"/>
	</g>
	<g id="POLYLINE_31_">
		<line class="st7" x1="194.09" y1="197" x2="194.18" y2="197"/>
	</g>
	<g id="POLYLINE_30_">
		<line class="st7" x1="182.51" y1="197" x2="191.2" y2="197"/>
	</g>
	<g id="POLYLINE_29_">
		<line class="st7" x1="206.89" y1="197" x2="216.08" y2="197"/>
	</g>
	<g id="POLYLINE_28_">
		<line class="st7" x1="244.3" y1="197" x2="310.75" y2="197"/>
	</g>
	<g id="POLYLINE_27_">
		<path class="st7" d="M193.26,186.69c2.47,0,4.94,0,7.41,0c0.8,0,1.53-0.09,2.24-0.49c1.32-0.75,1.89-2.09,1.9-3.55    c0.02-3.73,0-7.46,0-11.19c0-6.55,0-13.1,0-19.65c0-5.65,0-11.29,0-16.94c0-1.36,0-2.71,0-4.07c0-0.6-0.04-1.17-0.25-1.73    c-0.57-1.47-1.97-2.34-3.52-2.39c-2.28-0.07-4.57,0-6.85,0c-5.27,0-10.53,0-15.8,0c-6.67,0-13.33,0-20,0c-6.37,0-12.75,0-19.12,0    c-4.49,0-8.98,0-13.48,0c-1.44,0-3.24-0.27-4.65,0.18c-1.56,0.51-2.53,1.95-2.59,3.57c-0.1,2.96,0,5.93,0,8.89    c0,6.32,0,12.64,0,18.96c0,6.06,0,12.11,0,18.17c0,1.76,0,3.52,0,5.28c0,0.61-0.05,1.26,0.06,1.86c0.29,1.61,1.63,2.87,3.25,3.06    c1.37,0.16,2.82,0.03,4.19,0.03c3.22,0,6.45,0,9.67,0c1.77,0,3.53,0,5.3,0"/>
	</g>
	<g id="POLYLINE_26_">
		<line class="st7" x1="180.86" y1="186.69" x2="183.97" y2="186.69"/>
	</g>
	<g id="POLYLINE_25_">
		<line class="st7" x1="108.25" y1="197" x2="137.82" y2="197"/>
	</g>
	<g id="POLYLINE_24_">
		<polyline class="st7" points="505.75,198.75 505.75,245.75 565.75,245.75 565.75,198.75   "/>
	</g>
</g>
<g id="AG-WALL">
	<g id="POLYLINE_21_">
		<polygon class="st23" points="318.3,641.25 318.3,658.12 83.88,658.12 83.88,91.88 318.3,91.88 318.3,108.75 100.75,108.75     100.75,641.25   "/>
	</g>
	<g id="POLYLINE_20_">
		<polygon class="st23" points="453.3,658.12 453.3,641.25 633.25,641.25 633.25,108.75 633.25,91.88 650.12,91.88 650.12,658.12       "/>
	</g>
</g>
</svg>
