<svg xmlns="http://www.w3.org/2000/svg" viewBox="0 0 640 360">
  <defs>
    <filter id="nbSketch" x="-6%" y="-6%" width="112%" height="112%">
      <feTurbulence type="fractalNoise" baseFrequency="0.012" numOctaves="2" seed="2" result="warp"/>
      <feDisplacementMap in="SourceGraphic" in2="warp" scale="2.0" xChannelSelector="R" yChannelSelector="G" result="displaced"/>
      <feTurbulence type="fractalNoise" baseFrequency="0.65" numOctaves="1" seed="7" result="grain"/>
      <feColorMatrix in="grain" type="matrix" values="0 0 0 0 0.55  0 0 0 0 0.55  0 0 0 0 0.55  0 0 0 0.20 0" result="grainTint"/>
      <feBlend in="displaced" in2="grainTint" mode="multiply"/>
    </filter>
  </defs>
  <g filter="url(#nbSketch)">
  <g stroke="#6f6f6f" stroke-width="3" fill="none" stroke-linecap="round" stroke-linejoin="round">
    <rect x="70" y="60" width="500" height="240" rx="10"/>
    <line x1="70" y1="110" x2="570" y2="110"/>
    <line x1="160" y1="60" x2="160" y2="300"/>
    <line x1="250" y1="60" x2="250" y2="300"/>
    <line x1="340" y1="60" x2="340" y2="300"/>
    <line x1="430" y1="60" x2="430" y2="300"/>
    <rect x="95" y="140" width="210" height="22" rx="6"/>
    <rect x="180" y="180" width="260" height="22" rx="6"/>
    <rect x="260" y="220" width="170" height="22" rx="6"/>
    <line x1="120" y1="42" x2="120" y2="60"/>
    <line x1="220" y1="42" x2="220" y2="60"/>
    <line x1="320" y1="42" x2="320" y2="60"/>
    <line x1="420" y1="42" x2="420" y2="60"/>
  </g>
  </g>
</svg>
